<svg width="265" height="100" viewBox="0 0 265 100" fill="none" xmlns="http://www.w3.org/2000/svg">
<path d="M124.845 0L171.611 75H78.08L124.845 0Z" fill="#292F36"/>
<path d="M161.588 21.6495L194.854 75H128.322L161.588 21.6495Z" fill="#292F36"/>
<path d="M18.9287 55.6943C18.9287 58.7158 18.1712 61.0645 16.6562 62.7402C15.1497 64.416 13.0127 65.2539 10.2451 65.2539C7.44368 65.2539 5.28971 64.4245 3.7832 62.7656C2.28516 61.0983 1.53613 58.7327 1.53613 55.6689C1.53613 52.6051 2.28939 50.2523 3.7959 48.6104C5.31087 46.9684 7.46908 46.1475 10.2705 46.1475C13.0296 46.1475 15.1624 46.9811 16.6689 48.6484C18.1755 50.3158 18.9287 52.6644 18.9287 55.6943ZM4.76074 55.6943C4.76074 57.9795 5.22201 59.7145 6.14453 60.8994C7.06706 62.0758 8.43392 62.6641 10.2451 62.6641C12.0479 62.6641 13.4062 62.0801 14.3203 60.9121C15.2428 59.7441 15.7041 58.0049 15.7041 55.6943C15.7041 53.4176 15.2471 51.6911 14.333 50.5146C13.4274 49.3382 12.0732 48.75 10.2705 48.75C8.45085 48.75 7.07552 49.3382 6.14453 50.5146C5.22201 51.6911 4.76074 53.4176 4.76074 55.6943ZM34.9502 65H31.9541V56.3672C31.9541 55.2839 31.734 54.4756 31.2939 53.9424C30.8623 53.4092 30.1725 53.1426 29.2246 53.1426C27.9635 53.1426 27.041 53.515 26.457 54.2598C25.873 55.0046 25.5811 56.2529 25.5811 58.0049V65H22.5977V50.959H24.9336L25.3525 52.7998H25.5049C25.9281 52.1312 26.529 51.6149 27.3076 51.251C28.0863 50.887 28.9495 50.7051 29.8975 50.7051C33.266 50.7051 34.9502 52.4189 34.9502 55.8467V65ZM42.085 65H39.1016V45.2461H42.085V65ZM49.3467 65H46.3633V50.959H49.3467V65ZM46.1855 47.2393C46.1855 46.7061 46.3294 46.2956 46.6172 46.0078C46.9134 45.7201 47.3324 45.5762 47.874 45.5762C48.3988 45.5762 48.805 45.7201 49.0928 46.0078C49.389 46.2956 49.5371 46.7061 49.5371 47.2393C49.5371 47.7471 49.389 48.1491 49.0928 48.4453C48.805 48.7331 48.3988 48.877 47.874 48.877C47.3324 48.877 46.9134 48.7331 46.6172 48.4453C46.3294 48.1491 46.1855 47.7471 46.1855 47.2393ZM65.9775 65H62.9814V56.3672C62.9814 55.2839 62.7614 54.4756 62.3213 53.9424C61.8896 53.4092 61.1999 53.1426 60.252 53.1426C58.9909 53.1426 58.0684 53.515 57.4844 54.2598C56.9004 55.0046 56.6084 56.2529 56.6084 58.0049V65H53.625V50.959H55.9609L56.3799 52.7998H56.5322C56.9554 52.1312 57.5563 51.6149 58.335 51.251C59.1136 50.887 59.9769 50.7051 60.9248 50.7051C64.2933 50.7051 65.9775 52.4189 65.9775 55.8467V65ZM76.2607 65.2539C74.0771 65.2539 72.3675 64.6191 71.1318 63.3496C69.9046 62.0716 69.291 60.3154 69.291 58.0811C69.291 55.7874 69.8623 53.9847 71.0049 52.6729C72.1475 51.361 73.7174 50.7051 75.7148 50.7051C77.5684 50.7051 79.0326 51.2679 80.1074 52.3936C81.1823 53.5192 81.7197 55.068 81.7197 57.04V58.6523H72.3633C72.4056 60.015 72.7738 61.0645 73.4678 61.8008C74.1618 62.5286 75.1393 62.8926 76.4004 62.8926C77.2298 62.8926 78 62.8164 78.7109 62.6641C79.4303 62.5033 80.2005 62.2409 81.0215 61.877V64.3018C80.2936 64.6488 79.5573 64.8942 78.8125 65.0381C78.0677 65.182 77.2171 65.2539 76.2607 65.2539ZM75.7148 52.9648C74.7669 52.9648 74.0052 53.2653 73.4297 53.8662C72.8626 54.4671 72.5241 55.3431 72.4141 56.4941H78.7871C78.7702 55.3346 78.4909 54.4587 77.9492 53.8662C77.4076 53.2653 76.6628 52.9648 75.7148 52.9648ZM204.028 52.0508C204.028 53.9889 203.394 55.4743 202.124 56.5068C200.854 57.5394 199.048 58.0557 196.703 58.0557H194.773V65H191.739V46.4395H197.084C199.403 46.4395 201.138 46.9134 202.289 47.8613C203.449 48.8092 204.028 50.2057 204.028 52.0508ZM194.773 55.5039H196.386C197.943 55.5039 199.086 55.2331 199.813 54.6914C200.541 54.1497 200.905 53.3034 200.905 52.1523C200.905 51.0859 200.579 50.2904 199.928 49.7656C199.276 49.2409 198.26 48.9785 196.881 48.9785H194.773V55.5039ZM219.872 57.9541C219.872 60.2477 219.284 62.0378 218.107 63.3242C216.931 64.6107 215.293 65.2539 213.194 65.2539C211.882 65.2539 210.723 64.9577 209.716 64.3652C208.709 63.7728 207.934 62.9222 207.393 61.8135C206.851 60.7048 206.58 59.4183 206.58 57.9541C206.58 55.6774 207.164 53.9001 208.332 52.6221C209.5 51.3441 211.146 50.7051 213.271 50.7051C215.302 50.7051 216.91 51.361 218.095 52.6729C219.28 53.9762 219.872 55.7367 219.872 57.9541ZM209.652 57.9541C209.652 61.1956 210.85 62.8164 213.245 62.8164C215.615 62.8164 216.8 61.1956 216.8 57.9541C216.8 54.7464 215.606 53.1426 213.22 53.1426C211.967 53.1426 211.057 53.5573 210.49 54.3867C209.932 55.2161 209.652 56.4053 209.652 57.9541ZM230.435 50.7051C231.035 50.7051 231.531 50.7474 231.92 50.832L231.628 53.6123C231.205 53.5107 230.765 53.46 230.308 53.46C229.114 53.46 228.145 53.8493 227.4 54.6279C226.664 55.4066 226.296 56.418 226.296 57.6621V65H223.312V50.959H225.648L226.042 53.4346H226.194C226.66 52.5967 227.265 51.9323 228.01 51.4414C228.763 50.9505 229.571 50.7051 230.435 50.7051ZM239.766 62.8418C240.493 62.8418 241.221 62.7275 241.949 62.499V64.7461C241.619 64.89 241.192 65.0085 240.667 65.1016C240.151 65.2031 239.613 65.2539 239.055 65.2539C236.228 65.2539 234.814 63.7643 234.814 60.7852V53.2188H232.897V51.8984L234.954 50.8066L235.97 47.8359H237.811V50.959H241.81V53.2188H237.811V60.7344C237.811 61.4538 237.988 61.987 238.344 62.334C238.708 62.6725 239.182 62.8418 239.766 62.8418ZM253.553 65L252.956 63.0449H252.854C252.177 63.8997 251.496 64.4837 250.811 64.7969C250.125 65.1016 249.245 65.2539 248.17 65.2539C246.79 65.2539 245.711 64.8815 244.933 64.1367C244.162 63.3919 243.777 62.3382 243.777 60.9756C243.777 59.5283 244.315 58.4365 245.39 57.7002C246.465 56.9639 248.102 56.5618 250.303 56.4941L252.728 56.418V55.6689C252.728 54.7718 252.516 54.1032 252.093 53.6631C251.678 53.2145 251.031 52.9902 250.15 52.9902C249.431 52.9902 248.741 53.096 248.081 53.3076C247.421 53.5192 246.786 53.7689 246.177 54.0566L245.212 51.9238C245.974 51.526 246.807 51.2256 247.713 51.0225C248.618 50.8109 249.473 50.7051 250.277 50.7051C252.063 50.7051 253.409 51.0944 254.314 51.873C255.229 52.6517 255.686 53.8747 255.686 55.542V65H253.553ZM249.109 62.9688C250.193 62.9688 251.06 62.6683 251.712 62.0674C252.372 61.458 252.702 60.6074 252.702 59.5156V58.2969L250.899 58.373C249.494 58.4238 248.47 58.6608 247.827 59.084C247.192 59.4987 246.875 60.1377 246.875 61.001C246.875 61.6273 247.061 62.1139 247.434 62.4609C247.806 62.7995 248.365 62.9688 249.109 62.9688ZM262.833 65H259.85V45.2461H262.833V65Z" fill="#292F36"/>
<path d="M110.664 72.1719C109.539 72.1719 108.471 72.0625 107.461 71.8438V67.0469C107.794 67.1094 108.148 67.1771 108.523 67.25C108.898 67.3333 109.305 67.375 109.742 67.375C110.763 67.375 111.492 67.0677 111.93 66.4531C112.367 65.8385 112.586 64.7865 112.586 63.2969V42.1562H118.789V62.7656C118.789 65.8594 118.112 68.1979 116.758 69.7812C115.404 71.375 113.372 72.1719 110.664 72.1719ZM140.289 56.1094C140.289 59.0052 139.508 61.2656 137.945 62.8906C136.393 64.5052 134.216 65.3125 131.414 65.3125C128.727 65.3125 126.586 64.4844 124.992 62.8281C123.409 61.1719 122.617 58.9323 122.617 56.1094C122.617 53.224 123.393 50.9844 124.945 49.3906C126.508 47.7865 128.695 46.9844 131.508 46.9844C133.247 46.9844 134.784 47.3542 136.117 48.0938C137.451 48.8333 138.477 49.8958 139.195 51.2812C139.924 52.6562 140.289 54.2656 140.289 56.1094ZM128.82 56.1094C128.82 57.6302 129.023 58.7917 129.43 59.5938C129.836 60.3854 130.518 60.7812 131.477 60.7812C132.424 60.7812 133.091 60.3854 133.477 59.5938C133.872 58.7917 134.07 57.6302 134.07 56.1094C134.07 54.599 133.872 53.4583 133.477 52.6875C133.081 51.9167 132.404 51.5312 131.445 51.5312C130.508 51.5312 129.836 51.9167 129.43 52.6875C129.023 53.4479 128.82 54.5885 128.82 56.1094ZM154.602 46.9844C156.529 46.9844 158.055 47.7917 159.18 49.4062C160.315 51.0208 160.883 53.2552 160.883 56.1094C160.883 58.9844 160.31 61.2396 159.164 62.875C158.029 64.5 156.445 65.3125 154.414 65.3125C153.758 65.3125 153.174 65.2396 152.664 65.0938C152.154 64.9583 151.695 64.7656 151.289 64.5156C150.893 64.2656 150.43 63.849 149.898 63.2656H149.523L148.555 65H143.789V40.6875H149.898V46.1875C149.898 46.8438 149.826 47.974 149.68 49.5781H149.898C150.492 48.6615 151.174 48 151.945 47.5938C152.727 47.1875 153.612 46.9844 154.602 46.9844ZM152.367 51.7812C151.513 51.7812 150.888 52.0781 150.492 52.6719C150.096 53.2656 149.898 54.1979 149.898 55.4688V56.3281C149.898 57.776 150.096 58.8177 150.492 59.4531C150.888 60.0781 151.534 60.3906 152.43 60.3906C153.148 60.3906 153.701 60.026 154.086 59.2969C154.471 58.5573 154.664 57.474 154.664 56.0469C154.664 53.2031 153.898 51.7812 152.367 51.7812Z" fill="#4ECDC4"/>
</svg>
