<svg width="266" height="50" viewBox="0 0 266 50" fill="none" xmlns="http://www.w3.org/2000/svg">
<path d="M102.939 22.3482C102.81 22.0169 102.994 21.8512 103.068 21.5566C103.142 21.262 102.902 20.3415 102.902 20.3415C102.902 20.3415 102.129 17.1565 101.89 16.5306C101.789 16.2657 101.569 16.0835 101.348 15.9611C101.334 15.8799 101.312 15.8275 101.282 15.8126C101.069 15.7059 100.538 15.4742 100.184 15.4102C100.118 15.2964 100.039 15.1902 99.9496 15.0936C100.012 14.9743 100.041 14.8404 100.033 14.7061C100.01 14.3587 99.7474 14.0475 99.7816 13.7011C99.8076 13.4384 99.9996 13.2226 100.074 12.9692C100.105 12.8554 100.112 12.7365 100.095 12.6197C100.079 12.503 100.038 12.3909 99.9759 12.2905C100.03 12.3485 100.085 12.4064 100.139 12.4643C100.213 12.3533 100.249 12.2211 100.241 12.0879C100.233 11.9546 100.181 11.8278 100.094 11.7267C99.9213 11.5362 99.633 11.4648 99.4992 11.2454C99.3617 11.02 99.4355 10.7137 99.3055 10.4839C98.987 9.92087 98.1717 10.32 97.6834 10.1235C97.4827 10.0427 97.3302 9.95384 97.1044 9.96022C96.9124 9.97124 96.7226 10.0067 96.5396 10.0657C96.2771 10.1417 96.0486 10.3055 95.8923 10.5297C95.9078 10.5121 95.9247 10.4959 95.9429 10.4813C96.0612 10.3886 96.2688 10.3963 96.3312 10.5331C96.3462 10.5674 96.3524 10.6049 96.3495 10.6423C96.3392 10.8071 96.1952 10.9302 96.0521 11.0127C95.909 11.0952 95.7481 11.1642 95.6547 11.3004C95.5006 11.5253 95.5912 11.8269 95.5913 12.0995C95.59 12.2727 95.5499 12.4435 95.4739 12.5991C95.3979 12.7548 95.288 12.8914 95.1522 12.999L95.6717 12.7866C95.4237 13.2208 95.2609 13.6983 95.192 14.1935L95.8944 13.6133C95.6342 14.0273 95.4761 14.4972 95.4331 14.9843L95.9969 14.4066C96.0225 14.4517 96.0354 14.503 96.0341 14.5549L95.9753 14.7817C95.9545 14.8267 95.9315 14.8706 95.9063 14.9133C95.8156 15.0691 95.7218 15.2608 95.8066 15.4199L95.807 15.4197C95.7177 15.7202 95.583 16.0209 95.2832 16.167C95.6157 16.2018 95.9627 16.0355 96.1128 15.771C96.1373 15.8186 96.1669 15.8634 96.201 15.9046C96.2107 15.9167 96.2202 15.9287 96.2297 15.9407L96.1469 15.9959L95.9248 16.144C95.9248 16.144 94.4704 16.4385 94.5625 16.9908C94.5663 17.0136 94.5708 17.0407 94.5759 17.0711L94.1574 17.7825L93.5499 19.8444C93.5499 19.8444 93.2369 20.5072 93.2922 20.7834C93.3474 21.0595 93.2922 21.17 93.2922 21.667C93.2922 22.1641 93.0528 22.3666 93.2922 22.7717C93.5315 23.1767 94.2495 24.355 94.2495 24.355L94.4072 24.4732C94.3995 24.5443 94.4022 24.6161 94.4152 24.6863C94.5625 25.4228 95.9432 32.4739 95.9432 32.4739C95.9432 32.4739 95.2437 38.0522 96.6612 38.402C96.839 38.4459 97.0136 38.4857 97.1833 38.5211L97.3977 39.9301L97.2688 41.7159C97.2688 41.7159 96.293 43.9251 98.0788 44.054C99.8646 44.1829 99.0546 42.1393 99.0546 42.1393C99.1488 41.9648 99.1874 41.7656 99.165 41.5686C99.1468 41.4047 98.9935 40.5519 98.8432 39.7316C99.5209 39.6504 99.3941 38.9311 99.3038 38.6149C99.3429 38.592 99.3722 38.5556 99.386 38.5125C99.4064 38.439 99.3589 38.1501 99.2727 37.7453C99.2025 37.3428 99.0825 36.6913 99.0007 36.2499L99.4412 36.3217L101.301 25.4228C101.301 25.4228 101.313 25.2492 101.307 24.9955C101.562 24.864 101.824 24.7485 102.092 24.6495C102.7 24.4102 102.939 23.5265 103.142 23.1583C103.344 22.7901 103.068 22.6796 102.939 22.3482ZM96.3371 15.4089C96.3973 15.3674 96.4678 15.3435 96.5408 15.3398C96.5251 15.4254 96.3778 15.4505 96.2543 15.4953C96.277 15.4621 96.305 15.4329 96.3371 15.4089V15.4089ZM95.4094 20.8938C95.5585 21.1389 95.2885 21.8029 95.0451 22.3299C94.9056 22.2097 94.7601 22.2476 94.9307 21.9064C95.047 21.6902 95.116 21.4517 95.1332 21.2068C95.1332 21.1647 95.1548 20.8554 95.3362 20.7269C95.3553 20.7847 95.3798 20.8406 95.4094 20.8938V20.8938ZM94.8506 23.0088C94.935 22.9744 95.0628 22.9217 95.2354 22.863C95.1527 22.9715 95.0583 23.1008 94.9634 23.242C94.9275 23.2148 94.8986 23.1795 94.879 23.1389C94.8594 23.0984 94.8497 23.0538 94.8506 23.0088V23.0088ZM100.822 23.2503C100.71 23.1314 100.62 23.025 100.545 22.9299C100.684 22.9664 100.825 23.0057 100.969 23.0478C101.041 23.0585 101.114 23.0537 101.184 23.0335C101.19 23.1608 101.19 23.3424 101.19 23.3424L100.989 23.482C100.943 23.3983 100.887 23.3206 100.822 23.2503V23.2503ZM101.393 22.6119C101.391 22.6137 101.389 22.6159 101.387 22.6178C101.377 22.545 101.36 22.4733 101.337 22.4035C101.217 22.0229 101.152 21.3478 101.118 20.7716L101.466 21.9432C101.466 21.9432 101.485 22.5323 101.393 22.6119V22.6119Z" fill="#D0CDE1"/>
<path d="M94.2419 17.7729C94.2419 17.7729 92.3531 14.5266 92.2941 14.1724C92.2351 13.8183 91.2907 13.169 91.2907 13.169C90.968 12.8463 90.4386 12.7442 89.8815 12.7496C90.0913 12.576 89.3422 12.4593 89.2839 12.3427C89.2248 12.2246 89.0478 12.2246 88.8117 12.0476C88.5756 11.8705 87.9863 12.018 87.9862 12.018C87.8976 11.8316 87.8359 11.6336 87.8031 11.4298C88.0546 11.1322 88.1924 10.755 88.1919 10.3654C88.1919 10.3611 88.1916 10.357 88.1916 10.3527C88.2066 10.3761 88.2216 10.3996 88.2367 10.4239C88.3472 9.76157 88.5424 9.21104 88.1704 8.60686C87.9067 8.17865 87.494 7.8631 87.0116 7.72095L86.6573 8.0044L86.795 7.67379C86.6792 7.65612 86.562 7.64935 86.4449 7.65355L86.1261 8.06342L86.258 7.66759C85.9814 7.70197 85.7149 7.79329 85.4753 7.93579C85.2358 8.07829 85.0283 8.26888 84.8661 8.49555C84.4603 9.08058 84.4875 9.89381 84.8866 10.4834C84.8879 10.4793 84.889 10.4752 84.8903 10.4711C84.9079 10.7469 84.9944 11.0139 85.142 11.2477C85.2895 11.4814 85.4933 11.6744 85.7347 11.8089L85.835 12.6109C85.7447 12.6946 85.629 12.7457 85.5063 12.7558C85.3292 12.7558 85.1522 13.228 85.1522 13.228C85.1522 13.228 85.0518 13.2787 84.9436 13.5178C84.665 13.7075 83.8151 14.3033 83.4997 14.7197C83.3132 14.8115 83.1128 15.0157 83.1453 15.471C83.2044 16.2973 83.1453 20.1339 83.1453 20.1339C83.1453 20.1339 82.6141 23.3802 82.7912 23.6163C82.9683 23.8524 82.7322 24.6197 82.7322 24.6197L82.9092 24.6591V24.8558C82.9092 24.8558 82.3767 27.3247 83.2044 27.2168C84.5619 27.0397 83.5585 25.0329 83.5585 25.0329V24.8033L83.7946 24.8558C83.7946 24.8558 83.9127 24.0295 84.1488 23.9705C84.2309 23.9499 84.3273 23.7293 84.4181 23.4504C84.471 23.8855 84.5029 24.1475 84.5029 24.1475L84.8722 24.0655L84.9751 24.4426C85.0005 24.4569 85.027 24.4689 85.0544 24.4786L84.9751 24.9148C84.9751 24.9148 84.9161 25.387 84.9751 25.6822C85.0049 25.831 86.1005 29.0123 87.1794 32.1296L87.159 32.8831C87.159 32.8831 86.6278 33.4734 86.7458 33.8865C86.8639 34.2997 86.4507 37.7231 86.4507 37.7231L86.0966 39.4348L86.1857 39.4622L86.1039 39.7621C86.0334 39.7977 85.9707 39.847 85.9195 39.907C85.4473 40.4382 84.8571 41.9728 84.8571 41.9728C84.8571 41.9728 83.7946 43.5665 85.4473 43.5075C87.1 43.4484 87.218 42.8582 87.218 42.8582C87.218 42.8582 87.4541 41.3236 87.4541 41.2645C87.4541 41.2055 87.3361 40.5988 87.3361 40.5988L87.2902 40.5482L87.3222 39.8119L87.6312 39.907C87.6312 39.907 87.9263 38.3724 88.1624 38.1953C88.2449 38.1334 88.4645 37.444 88.7151 36.5586C88.9713 37.2962 89.2194 39.847 89.2999 40.0785C89.2714 40.1175 89.2463 40.1588 89.2248 40.2021C88.9595 40.7113 88.6639 41.204 88.3395 41.6777C88.3395 41.6777 86.4507 42.7992 88.3395 43.0943C88.3395 43.0943 89.4019 43.1533 89.9331 42.7992C90.4644 42.445 91.8809 41.9138 91.8809 41.7958C91.8809 41.6777 91.5268 39.9424 91.1726 40.1313L90.9354 39.5857L91.1726 39.4938L89.6783 32.7863C89.7136 32.6434 89.7396 32.4982 89.7561 32.3519C89.7561 32.0428 90.5203 26.0242 90.7148 24.4976C91.5708 24.7401 92.3531 22.967 92.3531 22.967L92.5472 22.6178L92.8253 22.79C92.8253 22.79 93.0614 22.1997 93.4156 22.1407C93.7697 22.0817 94.419 18.9534 94.419 18.5402C94.4136 18.275 94.3533 18.0137 94.2419 17.7729V17.7729ZM91.4918 22.3974C91.4338 22.3052 91.3664 22.2191 91.2907 22.1407C91.445 21.7388 91.5635 21.324 91.6448 20.9012C91.7629 20.2519 91.4678 18.127 91.4678 18.127L91.4626 17.9827C91.7523 18.363 92.117 18.87 92.117 19.0124C92.117 19.0811 92.133 19.1489 92.1638 19.2104C92.1945 19.2719 92.2391 19.3253 92.2941 19.3666L91.94 20.6061C91.94 20.6061 91.7039 21.1963 91.6448 21.4914C91.6095 21.6664 91.5897 21.8442 91.5858 22.0226L91.6695 22.0744L91.4918 22.3974Z" fill="#D0CDE1"/>
<path d="M67.2203 18.8654L67.5353 18.7945L66.2368 15.135L63.4331 14.1021C63.4331 14.1021 63.4224 14.114 63.4025 14.1346C63.1634 13.9031 63.0619 13.5673 63.0195 13.3029C63.245 13.2118 63.4475 13.0721 63.6128 12.8937C63.778 12.7153 63.9019 12.5027 63.9754 12.2709C64.049 12.0392 64.0705 11.794 64.0384 11.553C64.0063 11.3119 63.9214 11.081 63.7898 10.8765C64.0208 10.8211 64.1033 10.6115 64.1808 10.3616C64.1328 10.3474 64.0838 10.3367 64.0343 10.3296C64.0706 10.2482 64.107 10.1667 64.1433 10.0852C64.0794 10.0795 64.0156 10.0738 63.9517 10.068C63.9681 9.99188 63.9844 9.91572 64.0007 9.83956C63.9193 9.89578 63.8379 9.95199 63.7564 10.0082C63.7841 9.92825 63.791 9.84257 63.7764 9.75923C63.7619 9.67589 63.7264 9.59762 63.6732 9.53177C63.5651 9.4011 63.4241 9.30165 63.2647 9.24369C62.953 9.12104 62.6135 9.08667 62.2835 9.14435C61.9535 9.20202 61.6458 9.3495 61.3942 9.57061L61.3765 9.50182C60.8782 9.88489 60.5521 10.4499 60.4698 11.0731C60.3917 11.689 60.6875 12.3162 61.0721 12.8036C61.0689 12.7823 61.0654 12.7611 61.0619 12.7399C61.0785 12.7628 61.0957 12.7853 61.1134 12.8073L61.1607 14.6038L61.0423 14.7053C61.0421 14.7054 59.0556 15.6041 58.9782 16.6775L58.978 16.6783C58.8587 17.2009 58.7997 19.916 58.7997 19.916H58.9632L58.7997 20.9784L57.7373 25.1101C57.7373 25.1101 56.3797 26.8809 57.5602 27.235C58.2938 27.4551 58.5031 26.604 58.5564 25.928C58.5989 26.0955 58.726 26.2088 58.9768 26.2316C58.9965 26.2334 59.0176 26.2349 59.038 26.2365C58.4798 27.679 58.8587 32.3701 58.8587 32.3701C58.5636 32.9604 62.046 37.033 62.046 37.033L62.2557 36.9212L62.3011 37.0119C62.1844 37.0231 62.1051 37.033 62.1051 37.033V38.8628C62.1051 38.8628 61.5738 40.6925 62.2821 41.0467C62.4654 41.1383 62.6566 41.0716 62.8393 40.9228C62.8044 41.4875 62.7543 42.3301 62.7543 42.5223C62.7543 42.8174 63.5216 43.3486 63.5216 43.3486C63.5216 43.3486 63.6987 43.9979 65.1153 43.9979C66.5319 43.9979 65.4695 42.2862 65.4695 42.2862L64.7021 40.5745C64.7021 40.5745 64.6447 40.6026 64.471 40.4611L64.5332 39.7766L64.8792 39.8072L65.3514 32.9013C65.3514 32.9013 65.7646 26.7628 65.8236 25.8184C65.8374 25.5157 65.8303 25.2123 65.8023 24.9105L67.5353 21.3326L67.2203 18.8654ZM65.9416 21.1555L65.7646 21.7726V20.4079L65.9416 21.1555ZM58.5729 25.5327C58.5744 25.3164 58.5636 25.1692 58.5636 25.1692L59.7175 22.8613L59.6851 23.5755C59.6851 23.5755 58.7609 24.7445 58.5729 25.5327ZM61.2787 32.193L62.4002 28.2384L63.0495 33.0194L63.0029 34.7575C62.9238 34.5978 62.8604 34.4308 62.8134 34.2589C62.6363 33.5506 61.2787 32.193 61.2787 32.193Z" fill="#D0CDE1"/>
<path d="M77.2515 41.5871C76.6984 41.3594 75.6249 40.8714 75.4948 40.6111C75.3646 40.3509 74.714 38.3339 74.714 38.3339L74.5465 38.3461C74.5249 37.4298 74.4326 33.8787 74.2911 33.4542C74.2911 33.4542 74.9743 27.8263 73.6079 25.5816L73.3618 24.587C73.4426 24.1883 73.4322 23.2651 73.3802 23.1092C73.3152 22.914 74.1285 22.2959 73.9007 21.9055C73.673 21.5152 73.0549 20.1814 73.0549 20.1814C73.0549 20.1814 73.12 19.3355 72.2416 18.5548C72.2416 18.5548 71.9849 17.1016 70.8283 17.08C70.6719 16.8071 70.4531 16.3732 70.5175 16.18C70.5864 15.9731 70.8501 15.3283 70.999 14.9673C71.0781 14.9316 71.154 14.8893 71.2261 14.8409C72.146 14.4288 72.7944 13.438 72.7944 12.2805C72.7944 11.0415 72.0516 9.99291 71.0279 9.6413C71.0734 9.52111 71.0921 9.39238 71.0825 9.26419C71.0729 9.13601 71.0352 9.0115 70.9722 8.89946C70.9092 8.78743 70.8223 8.6906 70.7177 8.61581C70.6132 8.54103 70.4935 8.49012 70.3671 8.46668C70.2407 8.44325 70.1107 8.44785 69.9863 8.48016C69.8619 8.51248 69.7461 8.57173 69.6471 8.65371C69.5481 8.7357 69.4683 8.83843 69.4133 8.95464C69.3584 9.07085 69.3296 9.19771 69.3291 9.32625C69.2728 9.19281 69.2504 9.0475 69.2639 8.90329C69.2775 8.75909 69.3265 8.62049 69.4067 8.49985C69.4868 8.37922 69.5956 8.2803 69.7233 8.21195C69.851 8.14359 69.9936 8.10792 70.1384 8.10811C70.1955 8.10819 70.2523 8.1138 70.3083 8.12486C70.1154 8.03313 69.8957 8.01489 69.6903 8.07354C69.485 8.13219 69.3081 8.26371 69.1927 8.44346C69.0774 8.6232 69.0316 8.83884 69.0639 9.04995C69.0961 9.26106 69.2043 9.45316 69.368 9.59025C69.3781 9.62238 69.3901 9.65389 69.4039 9.68462C68.4406 10.0733 67.7534 11.0889 67.7534 12.2805C67.7534 13.3859 68.3448 14.3394 69.1993 14.782C69.1947 15.1416 69.1056 15.7478 68.6097 16.1172C68.3535 16.0002 67.998 15.8717 67.7699 15.93C67.652 15.838 67.474 15.8077 67.2318 16.0499C66.7438 16.5378 66.3209 17.8066 66.3209 18.5873C66.3209 19.3681 66.4185 23.89 66.4185 23.89C66.4185 23.89 65.898 24.0851 66.2558 24.3779C66.3297 24.4395 66.4225 24.474 66.5187 24.4756L66.8739 27.1106C66.8739 27.1106 66.6462 29.648 67.5246 29.6806C67.5934 29.6843 67.6619 29.6675 67.7212 29.6323L67.0691 32.5759C67.0691 32.5759 65.5727 33.5518 64.4015 35.4712C63.7983 36.4598 63.4976 37.0679 63.3474 37.426L63.1328 37.2929L62.3846 38.7243C62.3846 38.7243 60.7255 39.7328 61.0833 40.481C61.4412 41.2292 61.7665 41.4244 61.7665 41.4244L61.9942 41.3268L62.4171 42.1076C62.4171 42.1076 63.5232 43.7016 65.3124 42.8883C65.3964 42.7755 65.4417 42.6386 65.4417 42.498C65.4417 42.3573 65.3964 42.2204 65.3124 42.1076C65.0196 41.6847 64.2714 40.7738 64.2714 40.7738L64.7594 38.3014L64.6584 38.2388L67.7523 34.4952C67.7523 34.4952 68.6632 33.9422 68.9885 33.4542C69.3138 32.9662 71.3307 27.9239 71.3307 27.9239L72.4693 33.194C72.4693 33.194 72.4043 35.1133 72.6971 36.3495C72.8567 37.043 72.9607 37.748 73.0083 38.458L72.9248 38.4641L73.12 39.928C73.12 39.928 72.2742 42.01 72.8597 42.1727C73.2763 42.2803 73.7004 42.3564 74.1285 42.4004L74.1935 42.1727C74.1935 42.1727 76.6984 43.539 77.6093 42.5305C77.6093 42.5305 77.8045 41.8148 77.2515 41.5871ZM68.3378 25.6141C68.4354 25.7117 68.4029 26.1672 68.4029 26.1672L68.2077 27.4359L68.0128 28.3159C67.9858 27.9001 67.9314 27.4866 67.8499 27.078L67.7598 24.6467C67.7775 24.6578 67.797 24.666 67.8173 24.6707C67.8824 24.6707 67.8499 24.1177 67.8499 24.1177C67.8499 24.1177 67.8878 24.0189 67.9352 23.863C68.0617 24.2417 68.2161 24.4887 68.4029 24.5406L68.4354 24.9635C68.4354 24.9635 68.0125 25.1587 68.4029 25.1587C68.4256 25.1578 68.448 25.1545 68.47 25.1487L68.4354 25.3213C68.4354 25.3213 68.2403 25.5165 68.3378 25.6141Z" fill="#D0CDE1"/>
<path d="M76.6954 43.1026C91.138 43.1026 102.846 42.9096 102.846 42.6715C102.846 42.4335 91.138 42.2405 76.6954 42.2405C62.2528 42.2405 50.5447 42.4335 50.5447 42.6715C50.5447 42.9096 62.2528 43.1026 76.6954 43.1026Z" fill="#3F3D56"/>
<path d="M85.848 44.8986C101.735 44.8986 114.614 44.4 114.614 43.785C114.614 43.17 101.735 42.6714 85.848 42.6714C69.9612 42.6714 57.0824 43.17 57.0824 43.785C57.0824 44.4 69.9612 44.8986 85.848 44.8986Z" fill="#3F3D56"/>
<path d="M80.539 46.551C88.3356 46.551 94.6561 46.0524 94.6561 45.4374C94.6561 44.8224 88.3356 44.3239 80.539 44.3239C72.7424 44.3239 66.4219 44.8224 66.4219 45.4374C66.4219 46.0524 72.7424 46.551 80.539 46.551Z" fill="#3F3D56"/>
<path d="M100.942 47.3413C104.414 47.3413 107.229 47.0839 107.229 46.7665C107.229 46.4491 104.414 46.1918 100.942 46.1918C97.4706 46.1918 94.6561 46.4491 94.6561 46.7665C94.6561 47.0839 97.4706 47.3413 100.942 47.3413Z" fill="#3F3D56"/>
<path d="M92.3212 49.281C93.9678 49.281 95.3027 49.0237 95.3027 48.7063C95.3027 48.3889 93.9678 48.1315 92.3212 48.1315C90.6746 48.1315 89.3397 48.3889 89.3397 48.7063C89.3397 49.0237 90.6746 49.281 92.3212 49.281Z" fill="#3F3D56"/>
<path d="M68.0384 46.8383C69.685 46.8383 71.0199 46.581 71.0199 46.2636C71.0199 45.9462 69.685 45.6888 68.0384 45.6888C66.3918 45.6888 65.0569 45.9462 65.0569 46.2636C65.0569 46.581 66.3918 46.8383 68.0384 46.8383Z" fill="#3F3D56"/>
<path d="M82.7661 39.7618L83.0535 41.7734L84.4903 41.6297L84.3466 39.5463L82.7661 39.7618Z" fill="#FFB8B8"/>
<path d="M75.9411 39.7618L75.6537 41.7734L74.2169 41.6297L74.3605 39.5463L75.9411 39.7618Z" fill="#FFB8B8"/>
<path d="M73.8576 18.9275C73.8576 18.9275 72.5645 20.4362 72.8518 22.807C73.1392 25.1778 73.6421 30.566 73.6421 30.566L74.0013 40.1211L76.3003 39.9774L76.6595 31.8592L77.809 25.3215L80.8982 32.9368C80.8982 32.9368 82.4069 40.0492 82.4787 40.0492C82.5506 40.0492 84.634 39.8337 84.634 39.8337L83.6282 31.4281C83.6282 31.4281 82.0477 19.2149 81.1137 18.9994C80.1798 18.7838 73.8576 18.9275 73.8576 18.9275Z" fill="#2F2E41"/>
<path d="M84.6341 41.3424C84.6341 41.3424 83.3409 40.4803 82.838 41.486C82.3351 42.4918 82.7662 43.2103 82.7662 43.2103C82.7662 43.2103 83.1972 43.4976 82.9817 43.785C82.7662 44.0724 82.6943 45.9403 84.5622 45.6529C86.4302 45.3655 85.4962 43.4258 85.4962 43.4258L84.6341 41.3424Z" fill="#2F2E41"/>
<path d="M74.0731 41.3424C74.0731 41.3424 75.3663 40.4803 75.8692 41.486C76.3721 42.4918 75.941 43.2103 75.941 43.2103C75.941 43.2103 75.51 43.4976 75.7255 43.785C75.941 44.0724 76.0129 45.9403 74.145 45.6529C72.2771 45.3655 73.211 43.4258 73.211 43.4258L74.0731 41.3424Z" fill="#2F2E41"/>
<path d="M75.6178 4.95412C75.6178 4.95412 76.2644 6.75019 75.7615 7.75598C75.2586 8.76178 76.5518 9.91126 76.5518 9.91126C76.5518 9.91126 79.9283 8.18704 79.4973 7.32493C79.0662 6.46282 78.3478 5.31334 78.4915 4.59491L75.6178 4.95412Z" fill="#FFB8B8"/>
<path d="M76.8751 5.63662C78.1448 5.63662 79.174 4.60734 79.174 3.33766C79.174 2.06798 78.1448 1.0387 76.8751 1.0387C75.6054 1.0387 74.5761 2.06798 74.5761 3.33766C74.5761 4.60734 75.6054 5.63662 76.8751 5.63662Z" fill="#FFB8B8"/>
<path d="M75.2227 7.64823C75.2227 7.64823 77.5294 9.56774 79.2497 6.84784L81.0419 7.86375L81.9759 18.7838C81.9759 18.7838 76.7313 21.8012 74.2169 19.2149L74.5761 9.08508L75.2227 7.64823Z" fill="#D0CDE1"/>
<path d="M75.947 6.57294L72.7082 8.72584L73.8576 14.0422L72.3489 22.3041L74.7916 18.6401L75.947 6.57294Z" fill="#575A89"/>
<path d="M78.8096 5.97369L79.6051 6.49875L82.838 7.64823L82.3351 16.5567L83.7001 22.3041L81.7603 23.3099C81.7603 23.3099 81.4011 20.5799 79.174 19.2149C76.9469 17.8499 78.3014 6.38259 78.8096 5.97369Z" fill="#575A89"/>
<path d="M73.4266 19.9333L74.3605 20.5799C74.3605 20.5799 73.1751 21.8372 72.9596 21.6216C72.8972 21.5618 72.8488 21.4889 72.8177 21.4082C72.7867 21.3275 72.7738 21.2409 72.78 21.1547L72.5645 20.6518L73.4266 19.9333Z" fill="#FFB8B8"/>
<path d="M79.6352 19.7935L79.3177 20.2925C79.3177 20.2925 78.3837 20.7236 78.5992 21.0109C78.8148 21.2983 80.6108 21.9449 80.9701 21.2983L81.3293 20.6517L79.6352 19.7935Z" fill="#FFB8B8"/>
<path d="M73.1392 8.65411L72.6363 8.72596L71.8101 14.0782C71.8101 14.0782 71.4868 15.0481 71.846 17.3471C72.2053 19.646 72.561 21.1431 72.561 21.1431L74.145 20.0052L73.4266 18.1373L74.3605 11.3123L73.1392 8.65411Z" fill="#575A89"/>
<path d="M81.6885 7.50452L82.838 7.6482C82.838 7.6482 84.1311 9.01321 84.3467 10.4501C84.5622 11.8869 84.4903 15.9819 84.4903 15.9819L81.1856 21.2264L79.3895 19.9333L81.904 15.479L80.6827 10.1627L81.6885 7.50452Z" fill="#575A89"/>
<path d="M79.0673 1.25839C78.7197 0.693853 78.1755 0.277853 77.5396 0.0904522L77.0725 0.464127L77.2541 0.0282773C77.1014 0.00497998 76.9468 -0.00395312 76.7924 0.00159508L76.3722 0.541941L76.5461 0.0201038C76.1814 0.0654228 75.8301 0.185811 75.5143 0.373678C75.1984 0.561544 74.9249 0.812812 74.7111 1.11164C74.1762 1.88291 74.0859 2.9555 74.612 3.73281C74.7564 3.28899 74.9317 2.87255 75.0761 2.42873C75.1896 2.4442 75.3047 2.44476 75.4183 2.43039L75.594 2.02041L75.6431 2.41305C76.1877 2.3656 76.9955 2.26144 77.5118 2.16599L77.4616 1.86479L77.7619 2.11509C77.9201 2.07867 78.014 2.04565 78.0063 2.02041C78.3902 2.63944 78.7707 3.03482 79.1547 3.65384C79.3004 2.78069 79.5577 2.0549 79.0673 1.25839Z" fill="#2F2E41"/>
<path d="M78.9401 3.57668C79.026 3.57668 79.0957 3.43732 79.0957 3.26542C79.0957 3.09352 79.026 2.95416 78.9401 2.95416C78.8541 2.95416 78.7844 3.09352 78.7844 3.26542C78.7844 3.43732 78.8541 3.57668 78.9401 3.57668Z" fill="#FFB8B8"/>
<path d="M103.807 43.8986C103.873 46.1658 102.548 46.9967 100.886 47.0453C100.847 47.0464 100.808 47.0471 100.77 47.0473C100.693 47.0479 100.617 47.0466 100.541 47.0435C99.0376 46.9811 97.8474 46.1829 97.7858 44.0744C97.7221 41.8924 100.431 39.0572 100.634 38.8475L100.634 38.8473C100.642 38.8393 100.646 38.8353 100.646 38.8353C100.646 38.8353 103.74 41.6316 103.807 43.8986Z" fill="#32936F"/>
<path d="M100.766 46.7016L101.822 45.1311L100.768 46.8706L100.77 47.0473C100.693 47.0479 100.617 47.0466 100.541 47.0434L100.593 44.7718L100.592 44.7543L100.594 44.7509L100.599 44.5363L99.4424 42.8571L100.598 44.3756L100.602 44.421L100.641 42.7047L99.6423 40.9638L100.644 42.4032L100.634 38.8475L100.634 38.8356L100.634 38.8473L100.7 41.6497L101.611 40.5113L100.703 41.8911L100.723 43.4263L101.561 41.928L100.726 43.6519L100.737 44.5056L101.956 42.4185L100.741 44.8034L100.766 46.7016Z" fill="#3F3D56"/>
<path d="M65.2988 40.5219C65.365 42.7892 64.0403 43.6201 62.3778 43.6686C62.3392 43.6697 62.3008 43.6704 62.2625 43.6707C62.1854 43.6713 62.109 43.67 62.0334 43.6668C60.5299 43.6044 59.3397 42.8063 59.2781 40.6978C59.2144 38.5157 61.9228 35.6806 62.126 35.4709L62.1264 35.4707C62.1341 35.4627 62.138 35.4587 62.138 35.4587C62.138 35.4587 65.2326 38.2549 65.2988 40.5219Z" fill="#32936F"/>
<path d="M62.2582 43.325L63.3143 41.7545L62.2604 43.494L62.2626 43.6707C62.1855 43.6713 62.1091 43.67 62.0335 43.6668L62.0859 41.3952L62.0845 41.3777L62.0864 41.3743L62.0914 41.1597L60.9349 39.4805L62.09 40.999L62.0941 41.0444L62.1337 39.3281L61.1348 37.5872L62.1365 39.0266L62.1261 35.4709L62.1261 35.459L62.1264 35.4707L62.1928 38.2731L63.1032 37.1347L62.1957 38.5145L62.2156 40.0497L63.0534 38.5514L62.2187 40.2754L62.2298 41.129L63.4481 39.0419L62.2335 41.4268L62.2582 43.325Z" fill="#3F3D56"/>
<path d="M94.0731 47.0949C94.112 48.4257 93.3344 48.9134 92.3585 48.9419C92.3359 48.9426 92.3133 48.943 92.2908 48.9431C92.2456 48.9435 92.2008 48.9427 92.1564 48.9409C91.2738 48.9042 90.5752 48.4357 90.5391 47.1981C90.5017 45.9173 92.0915 44.2531 92.2107 44.13L92.2109 44.1299C92.2155 44.1252 92.2178 44.1229 92.2178 44.1229C92.2178 44.1229 94.0342 45.7642 94.0731 47.0949Z" fill="#32936F"/>
<path d="M92.2883 48.7402L92.9082 47.8184L92.2896 48.8394L92.2909 48.9432C92.2456 48.9435 92.2008 48.9427 92.1564 48.9409L92.1872 47.6075L92.1863 47.5972L92.1874 47.5952L92.1904 47.4692L91.5115 46.4836L92.1896 47.3749L92.192 47.4016L92.2152 46.3941L91.6289 45.3723L92.2169 46.2172L92.2108 44.1301L92.2108 44.1231L92.211 44.1299L92.2499 45.7749L92.7843 45.1067L92.2516 45.9166L92.2633 46.8177L92.755 45.9382L92.2651 46.9502L92.2716 47.4512L92.9867 46.2262L92.2738 47.626L92.2883 48.7402Z" fill="#3F3D56"/>
<path d="M118.205 3.67775C118.207 3.67116 118.209 3.6645 118.211 3.6579C118.21 3.66079 118.209 3.66358 118.208 3.66648L118.205 3.67775Z" fill="#2F2E41"/>
<path d="M108.166 41.7988L113.487 33.8856L108.176 42.6501L108.188 43.5405C107.799 43.5435 107.414 43.537 107.033 43.5211L107.297 32.0752L107.29 31.9869L107.3 31.9698L107.325 30.8883L101.498 22.4276L107.318 30.0788L107.339 30.3074L107.538 21.6595L102.505 12.8878L107.553 20.1404L107.5 2.22424L107.5 2.16461L107.502 2.22326L107.836 16.3436L112.423 10.6079L107.851 17.56L107.951 25.2953L112.172 17.7459L107.967 26.4325L108.022 30.7337L114.161 20.2176L108.041 32.2343L108.166 41.7988Z" fill="#3F3D56"/>
<path d="M53.8313 41.492L57.4522 36.1073L53.8387 42.0713L53.8463 42.6772C53.5819 42.6792 53.3201 42.6748 53.0609 42.664L53.2405 34.8754L53.2356 34.8153L53.2422 34.8037L53.2594 34.0677L49.2941 28.3105L53.2547 33.5169L53.2688 33.6724L53.4045 27.7878L49.9794 21.8189L53.4142 26.7541L53.3784 14.5627L53.3784 14.5221L53.3796 14.562L53.607 24.1705L56.7284 20.2675L53.6172 24.9982L53.6853 30.2619L56.5577 25.1247L53.6959 31.0357L53.7338 33.9626L57.911 26.8066L53.7465 34.9836L53.8313 41.492Z" fill="#3F3D56"/>
<path d="M215.58 40.4654H216.818L217.599 42.7957C217.666 42.9982 217.712 43.2378 217.736 43.5144H217.759C217.786 43.26 217.839 43.0204 217.918 42.7957L218.685 40.4654H219.896L218.144 45.137C217.983 45.5693 217.754 45.8928 217.455 46.1077C217.158 46.3225 216.811 46.43 216.414 46.43C216.219 46.43 216.027 46.409 215.84 46.367V45.4705C215.975 45.5026 216.124 45.5186 216.284 45.5186C216.484 45.5186 216.658 45.4569 216.806 45.3334C216.957 45.2124 217.074 45.0284 217.158 44.7814L217.225 44.5776L215.58 40.4654Z" fill="#292F36"/>
<path d="M221.393 42.5289C221.393 42.9389 221.46 43.2489 221.593 43.4588C221.729 43.6687 221.949 43.7737 222.252 43.7737C222.554 43.7737 222.77 43.67 222.901 43.4625C223.034 43.2526 223.101 42.9414 223.101 42.5289C223.101 42.119 223.034 41.8115 222.901 41.6065C222.767 41.4015 222.549 41.299 222.245 41.299C221.944 41.299 221.726 41.4015 221.593 41.6065C221.46 41.809 221.393 42.1165 221.393 42.5289ZM224.257 42.5289C224.257 43.2032 224.079 43.7305 223.723 44.1108C223.367 44.4912 222.872 44.6814 222.238 44.6814C221.84 44.6814 221.489 44.5949 221.185 44.422C220.882 44.2467 220.648 43.996 220.485 43.67C220.322 43.344 220.241 42.9636 220.241 42.5289C220.241 41.8522 220.417 41.3261 220.77 40.9507C221.124 40.5753 221.62 40.3876 222.26 40.3876C222.657 40.3876 223.008 40.4741 223.312 40.647C223.616 40.8198 223.849 41.0681 224.012 41.3916C224.175 41.7151 224.257 42.0943 224.257 42.5289Z" fill="#292F36"/>
<path d="M228.124 44.6073L227.972 44.0775H227.913C227.792 44.2701 227.62 44.4196 227.398 44.5258C227.176 44.6295 226.923 44.6814 226.639 44.6814C226.152 44.6814 225.785 44.5517 225.538 44.2924C225.291 44.0306 225.168 43.6552 225.168 43.1661V40.4654H226.298V42.8846C226.298 43.1834 226.351 43.4082 226.457 43.5588C226.563 43.707 226.733 43.7811 226.965 43.7811C227.281 43.7811 227.509 43.6762 227.65 43.4662C227.791 43.2538 227.861 42.9031 227.861 42.4141V40.4654H228.991V44.6073H228.124Z" fill="#292F36"/>
<path d="M232.488 40.3876C232.642 40.3876 232.769 40.3987 232.87 40.421L232.785 41.4805C232.693 41.4558 232.582 41.4435 232.451 41.4435C232.091 41.4435 231.809 41.5361 231.607 41.7213C231.407 41.9066 231.307 42.1659 231.307 42.4993V44.6073H230.177V40.4654H231.032L231.199 41.1619H231.255C231.383 40.9297 231.556 40.7433 231.773 40.6025C231.993 40.4593 232.232 40.3876 232.488 40.3876Z" fill="#292F36"/>
<path d="M235.26 46.43C234.971 46.43 234.722 46.3991 234.515 46.3374V45.4482C234.688 45.4952 234.864 45.5186 235.045 45.5186C235.235 45.5186 235.373 45.4655 235.46 45.3593C235.549 45.2531 235.593 45.0963 235.593 44.8888V40.4654H236.723V45.0555C236.723 45.4952 236.596 45.8335 236.341 46.0706C236.087 46.3102 235.726 46.43 235.26 46.43ZM235.545 39.3948C235.545 39.0268 235.75 38.8428 236.16 38.8428C236.57 38.8428 236.775 39.0268 236.775 39.3948C236.775 39.5701 236.723 39.7072 236.619 39.806C236.518 39.9023 236.365 39.9505 236.16 39.9505C235.75 39.9505 235.545 39.7652 235.545 39.3948Z" fill="#292F36"/>
<path d="M238.812 42.5289C238.812 42.9389 238.879 43.2489 239.012 43.4588C239.148 43.6687 239.368 43.7737 239.672 43.7737C239.973 43.7737 240.189 43.67 240.32 43.4625C240.454 43.2526 240.52 42.9414 240.52 42.5289C240.52 42.119 240.454 41.8115 240.32 41.6065C240.187 41.4015 239.968 41.299 239.664 41.299C239.363 41.299 239.146 41.4015 239.012 41.6065C238.879 41.809 238.812 42.1165 238.812 42.5289ZM241.676 42.5289C241.676 43.2032 241.498 43.7305 241.143 44.1108C240.787 44.4912 240.292 44.6814 239.657 44.6814C239.259 44.6814 238.909 44.5949 238.605 44.422C238.301 44.2467 238.068 43.996 237.905 43.67C237.742 43.344 237.66 42.9636 237.66 42.5289C237.66 41.8522 237.837 41.3261 238.19 40.9507C238.543 40.5753 239.04 40.3876 239.679 40.3876C240.077 40.3876 240.428 40.4741 240.731 40.647C241.035 40.8198 241.269 41.0681 241.432 41.3916C241.595 41.7151 241.676 42.0943 241.676 42.5289Z" fill="#292F36"/>
<path d="M244.914 40.3876C245.403 40.3876 245.786 40.579 246.062 40.9619C246.339 41.3422 246.477 41.8646 246.477 42.5289C246.477 43.2131 246.334 43.7428 246.048 44.1182C245.764 44.4937 245.376 44.6814 244.884 44.6814C244.398 44.6814 244.016 44.5048 243.74 44.1516H243.662L243.473 44.6073H242.61V38.8428H243.74V40.1839C243.74 40.3543 243.725 40.6272 243.695 41.0026H243.74C244.004 40.5926 244.395 40.3876 244.914 40.3876ZM244.551 41.2916C244.272 41.2916 244.068 41.378 243.94 41.5509C243.811 41.7213 243.745 42.0041 243.74 42.3993V42.5215C243.74 42.9661 243.805 43.2847 243.936 43.4773C244.069 43.67 244.279 43.7663 244.566 43.7663C244.798 43.7663 244.982 43.6601 245.118 43.4477C245.256 43.2328 245.325 42.9216 245.325 42.5141C245.325 42.1066 245.256 41.8016 245.118 41.5991C244.979 41.3941 244.79 41.2916 244.551 41.2916Z" fill="#292F36"/>
<path d="M249.334 39.3948C249.334 39.0268 249.539 38.8428 249.949 38.8428C250.359 38.8428 250.564 39.0268 250.564 39.3948C250.564 39.5701 250.512 39.7072 250.408 39.806C250.307 39.9023 250.154 39.9505 249.949 39.9505C249.539 39.9505 249.334 39.7652 249.334 39.3948ZM250.512 44.6073H249.382V40.4654H250.512V44.6073Z" fill="#292F36"/>
<path d="M254.591 43.3773C254.591 43.8021 254.442 44.1257 254.146 44.3479C253.852 44.5702 253.411 44.6814 252.823 44.6814C252.522 44.6814 252.265 44.6604 252.053 44.6184C251.84 44.5789 251.642 44.5196 251.456 44.4406V43.507C251.666 43.6058 251.902 43.6885 252.164 43.7552C252.428 43.8219 252.66 43.8552 252.861 43.8552C253.27 43.8552 253.475 43.7367 253.475 43.4996C253.475 43.4107 253.448 43.339 253.394 43.2847C253.34 43.2279 253.246 43.1649 253.112 43.0958C252.979 43.0241 252.801 42.9414 252.579 42.8475C252.26 42.7142 252.026 42.5907 251.875 42.4771C251.727 42.3635 251.618 42.2338 251.549 42.0881C251.482 41.9399 251.449 41.7584 251.449 41.5435C251.449 41.1755 251.591 40.8915 251.875 40.6914C252.162 40.4889 252.567 40.3876 253.09 40.3876C253.589 40.3876 254.074 40.4963 254.546 40.7136L254.205 41.5287C253.998 41.4398 253.804 41.3669 253.624 41.3101C253.443 41.2533 253.259 41.2249 253.072 41.2249C252.738 41.2249 252.572 41.315 252.572 41.4953C252.572 41.5966 252.625 41.6843 252.731 41.7584C252.84 41.8325 253.075 41.9424 253.438 42.0881C253.762 42.219 253.999 42.3412 254.15 42.4548C254.3 42.5685 254.412 42.6994 254.483 42.8475C254.555 42.9957 254.591 43.1723 254.591 43.3773Z" fill="#292F36"/>
<path d="M258.343 42.5289C258.343 42.9389 258.41 43.2489 258.544 43.4588C258.679 43.6687 258.899 43.7737 259.203 43.7737C259.504 43.7737 259.72 43.67 259.851 43.4625C259.985 43.2526 260.051 42.9414 260.051 42.5289C260.051 42.119 259.985 41.8115 259.851 41.6065C259.718 41.4015 259.499 41.299 259.196 41.299C258.894 41.299 258.677 41.4015 258.544 41.6065C258.41 41.809 258.343 42.1165 258.343 42.5289ZM261.207 42.5289C261.207 43.2032 261.029 43.7305 260.674 44.1108C260.318 44.4912 259.823 44.6814 259.188 44.6814C258.79 44.6814 258.44 44.5949 258.136 44.422C257.832 44.2467 257.599 43.996 257.436 43.67C257.273 43.344 257.191 42.9636 257.191 42.5289C257.191 41.8522 257.368 41.3261 257.721 40.9507C258.074 40.5753 258.571 40.3876 259.21 40.3876C259.608 40.3876 259.959 40.4741 260.262 40.647C260.566 40.8198 260.8 41.0681 260.963 41.3916C261.126 41.7151 261.207 42.0943 261.207 42.5289Z" fill="#292F36"/>
<path d="M265.964 44.6073H264.834V42.1881C264.834 41.8893 264.781 41.6657 264.675 41.5176C264.569 41.3669 264.399 41.2916 264.167 41.2916C263.851 41.2916 263.623 41.3978 263.482 41.6102C263.341 41.8201 263.271 42.1696 263.271 42.6586V44.6073H262.141V40.4654H263.004L263.156 40.9952H263.219C263.345 40.7951 263.518 40.6445 263.737 40.5432C263.96 40.4395 264.212 40.3876 264.493 40.3876C264.975 40.3876 265.34 40.5185 265.59 40.7803C265.839 41.0397 265.964 41.4151 265.964 41.9066V44.6073Z" fill="#292F36"/>
<path d="M128.123 25.1515C127.667 24.8784 127.197 24.6356 126.711 24.4231C126.302 24.241 125.839 24.0741 125.323 23.9224C124.822 23.7555 124.329 23.672 123.843 23.672C123.449 23.672 123.13 23.7327 122.887 23.8541C122.66 23.9755 122.546 24.1804 122.546 24.4687C122.546 24.6811 122.614 24.8556 122.751 24.9922C122.887 25.1288 123.085 25.2577 123.343 25.3791C123.601 25.4854 123.912 25.5916 124.276 25.6978C124.655 25.804 125.08 25.933 125.55 26.0847C126.294 26.3124 126.962 26.5627 127.554 26.8359C128.16 27.109 128.676 27.4353 129.101 27.8146C129.526 28.1788 129.852 28.6265 130.08 29.1576C130.308 29.6887 130.421 30.3336 130.421 31.0923C130.421 32.0635 130.239 32.8829 129.875 33.5505C129.526 34.203 129.056 34.7266 128.464 35.1211C127.887 35.5156 127.227 35.8039 126.484 35.986C125.755 36.153 125.019 36.2364 124.276 36.2364C123.684 36.2364 123.077 36.1909 122.455 36.0998C121.833 36.0088 121.211 35.8798 120.588 35.7129C119.981 35.546 119.39 35.3487 118.813 35.1211C118.252 34.8935 117.728 34.6355 117.242 34.3472L119.154 30.455C119.686 30.7888 120.239 31.0847 120.816 31.3427C121.302 31.5703 121.848 31.7751 122.455 31.9572C123.077 32.1393 123.707 32.2304 124.344 32.2304C124.83 32.2304 125.164 32.1697 125.346 32.0483C125.543 31.9117 125.642 31.7372 125.642 31.5248C125.642 31.2971 125.543 31.1075 125.346 30.9557C125.164 30.7888 124.906 30.6446 124.572 30.5233C124.238 30.4019 123.851 30.2805 123.411 30.1591C122.986 30.0377 122.531 29.8935 122.045 29.7266C121.332 29.4838 120.717 29.2258 120.202 28.9527C119.686 28.6644 119.261 28.3457 118.927 27.9967C118.593 27.6325 118.343 27.2228 118.176 26.7676C118.024 26.3124 117.948 25.7888 117.948 25.197C117.948 24.3017 118.107 23.5127 118.426 22.8298C118.76 22.147 119.208 21.5779 119.769 21.1227C120.33 20.6675 120.968 20.3261 121.681 20.0984C122.409 19.8556 123.176 19.7343 123.98 19.7343C124.572 19.7343 125.148 19.7949 125.71 19.9163C126.271 20.0226 126.81 20.1667 127.326 20.3488C127.857 20.5157 128.35 20.7054 128.805 20.9179C129.261 21.1151 129.67 21.3048 130.035 21.4869L128.123 25.1515Z" fill="#32936F"/>
<path d="M137.78 36.2592C137.189 36.2592 136.635 36.1605 136.119 35.9633C135.603 35.766 135.155 35.5005 134.776 35.1666C134.412 34.8176 134.123 34.4079 133.911 33.9375C133.698 33.4671 133.592 32.9587 133.592 32.4125C133.592 31.8055 133.721 31.2516 133.979 30.7509C134.237 30.2501 134.594 29.8176 135.049 29.4535C135.504 29.0893 136.043 28.8085 136.665 28.6113C137.302 28.414 138 28.3154 138.759 28.3154C139.73 28.3154 140.535 28.4671 141.172 28.7706V28.4064C141.172 27.845 141.005 27.4277 140.671 27.1545C140.352 26.8814 139.829 26.7448 139.101 26.7448C138.418 26.7448 137.788 26.8586 137.211 27.0863C136.635 27.2987 136.028 27.6174 135.39 28.0422L134.139 25.3564C135.717 24.3397 137.515 23.8313 139.533 23.8313C141.445 23.8313 142.917 24.2562 143.949 25.106C144.981 25.9558 145.497 27.2304 145.497 28.9299V31.2516C145.497 31.6613 145.557 31.9496 145.679 32.1166C145.8 32.2683 146.013 32.3594 146.316 32.3897V36.0316C145.967 36.1074 145.633 36.1605 145.314 36.1909C145.011 36.2364 144.738 36.2592 144.495 36.2592C143.721 36.2592 143.129 36.1226 142.72 35.8495C142.325 35.5612 142.067 35.1439 141.946 34.5976L141.855 34.1651C141.324 34.848 140.709 35.3715 140.011 35.7357C139.313 36.0847 138.569 36.2592 137.78 36.2592ZM139.078 33.1636C139.336 33.1636 139.601 33.1257 139.874 33.0498C140.148 32.9587 140.39 32.8449 140.603 32.7084C140.77 32.587 140.906 32.458 141.013 32.3214C141.119 32.1697 141.172 32.0179 141.172 31.8662V30.9785C140.914 30.8874 140.633 30.8116 140.33 30.7509C140.026 30.6902 139.753 30.6598 139.51 30.6598C138.979 30.6598 138.539 30.7888 138.19 31.0468C137.841 31.3047 137.667 31.631 137.667 32.0255C137.667 32.3594 137.796 32.6325 138.054 32.8449C138.327 33.0574 138.668 33.1636 139.078 33.1636Z" fill="#32936F"/>
<path d="M169.456 36.0316H165.131V29.2941C165.131 28.7023 165.01 28.2774 164.767 28.0195C164.54 27.7463 164.259 27.6098 163.925 27.6098C163.576 27.6098 163.204 27.7691 162.81 28.0878C162.43 28.4064 162.15 28.8161 161.968 29.3169V36.0316H157.643V29.2941C157.643 28.7023 157.522 28.2774 157.279 28.0195C157.051 27.7463 156.77 27.6098 156.437 27.6098C156.088 27.6098 155.716 27.7691 155.321 28.0878C154.942 28.4064 154.661 28.8161 154.479 29.3169V36.0316H150.154V24.059H154.047V25.8344C154.471 25.1819 155.056 24.6887 155.799 24.3549C156.543 24.0058 157.423 23.8313 158.44 23.8313C158.925 23.8313 159.35 23.892 159.714 24.0134C160.078 24.1197 160.389 24.2714 160.647 24.4687C160.921 24.6659 161.133 24.886 161.285 25.1288C161.452 25.3715 161.581 25.6295 161.672 25.9026C162.097 25.2501 162.673 24.7418 163.402 24.3776C164.145 24.0134 164.987 23.8313 165.928 23.8313C166.717 23.8313 167.339 23.9831 167.795 24.2866C168.265 24.5749 168.622 24.9391 168.864 25.3791C169.107 25.8192 169.267 26.2896 169.342 26.7903C169.418 27.2911 169.456 27.7463 169.456 28.156V36.0316Z" fill="#32936F"/>
<path d="M177.455 36.2592C176.241 36.2592 175.316 35.895 174.678 35.1666C174.041 34.4231 173.722 33.3457 173.722 31.9345V24.059H178.047V30.9557C178.047 31.4868 178.161 31.8965 178.389 32.1849C178.631 32.4732 178.958 32.6173 179.367 32.6173C179.701 32.6173 180.043 32.5414 180.392 32.3897C180.741 32.238 181.09 31.9041 181.439 31.3882V24.059H185.763V31.2516C185.763 31.6613 185.824 31.9496 185.945 32.1166C186.067 32.2683 186.279 32.3594 186.583 32.3897V36.0316C185.839 36.1833 185.232 36.2592 184.762 36.2592C183.29 36.2592 182.44 35.7053 182.212 34.5976L182.121 34.1651C181.56 34.9087 180.892 35.4473 180.118 35.7812C179.345 36.0998 178.457 36.2592 177.455 36.2592Z" fill="#32936F"/>
<path d="M202.668 36.0316H198.344V29.2941C198.344 28.7023 198.207 28.2774 197.934 28.0195C197.676 27.7463 197.35 27.6098 196.955 27.6098C196.818 27.6098 196.652 27.6553 196.454 27.7463C196.272 27.8222 196.083 27.936 195.885 28.0878C195.703 28.2243 195.529 28.3988 195.362 28.6113C195.195 28.8237 195.058 29.0589 194.952 29.3169V36.0316H190.627V19.4156H194.952V25.8344C195.377 25.1819 195.931 24.6887 196.614 24.3549C197.296 24.0058 198.063 23.8313 198.913 23.8313C199.747 23.8313 200.415 23.9755 200.916 24.2638C201.416 24.5521 201.796 24.9163 202.054 25.3564C202.312 25.7813 202.479 26.2441 202.554 26.7448C202.63 27.2456 202.668 27.716 202.668 28.156V36.0316Z" fill="#32936F"/>
<path d="M207.086 36.0316V31.8434H210.591V36.0316H207.086Z" fill="#32936F"/>
<path d="M214.436 30.0453C214.436 29.2258 214.58 28.4444 214.868 27.7008C215.157 26.9421 215.574 26.282 216.12 25.7206C216.682 25.1439 217.372 24.6887 218.192 24.3549C219.011 24.0058 219.952 23.8313 221.014 23.8313C222.471 23.8313 223.685 24.1348 224.656 24.7418C225.642 25.3488 226.378 26.1303 226.864 27.0863L222.653 28.3609C222.243 27.7691 221.689 27.4732 220.991 27.4732C220.4 27.4732 219.899 27.7008 219.489 28.156C219.079 28.5961 218.874 29.2258 218.874 30.0453C218.874 30.8647 219.079 31.502 219.489 31.9572C219.899 32.3973 220.4 32.6173 220.991 32.6173C221.689 32.6173 222.243 32.3214 222.653 31.7296L226.864 33.0043C226.378 33.9603 225.642 34.7417 224.656 35.3487C223.685 35.9557 222.471 36.2592 221.014 36.2592C219.952 36.2592 219.011 36.0923 218.192 35.7584C217.372 35.4094 216.682 34.9542 216.12 34.3927C215.574 33.8161 215.157 33.156 214.868 32.4125C214.58 31.6537 214.436 30.8647 214.436 30.0453Z" fill="#32936F"/>
<path d="M236.293 36.2592C235.216 36.2592 234.267 36.0923 233.448 35.7584C232.644 35.4094 231.961 34.9542 231.399 34.3927C230.853 33.8161 230.436 33.156 230.148 32.4125C229.874 31.6537 229.738 30.8647 229.738 30.0453C229.738 29.2258 229.874 28.4444 230.148 27.7008C230.436 26.9421 230.853 26.282 231.399 25.7206C231.961 25.1439 232.644 24.6887 233.448 24.3549C234.267 24.0058 235.216 23.8313 236.293 23.8313C237.355 23.8313 238.296 24.0058 239.116 24.3549C239.935 24.6887 240.618 25.1439 241.164 25.7206C241.726 26.282 242.143 26.9421 242.416 27.7008C242.704 28.4444 242.848 29.2258 242.848 30.0453C242.848 30.8647 242.704 31.6537 242.416 32.4125C242.143 33.156 241.726 33.8161 241.164 34.3927C240.618 34.9542 239.935 35.4094 239.116 35.7584C238.296 36.0923 237.355 36.2592 236.293 36.2592ZM234.176 30.0453C234.176 30.8495 234.374 31.4792 234.768 31.9345C235.163 32.3897 235.671 32.6173 236.293 32.6173C236.915 32.6173 237.424 32.3897 237.818 31.9345C238.213 31.4792 238.41 30.8495 238.41 30.0453C238.41 29.241 238.213 28.6113 237.818 28.156C237.424 27.7008 236.915 27.4732 236.293 27.4732C235.671 27.4732 235.163 27.7008 234.768 28.156C234.374 28.6113 234.176 29.241 234.176 30.0453Z" fill="#32936F"/>
<path d="M265.957 36.0316H261.633V29.2941C261.633 28.7023 261.511 28.2774 261.269 28.0195C261.041 27.7463 260.76 27.6098 260.426 27.6098C260.077 27.6098 259.706 27.7691 259.311 28.0878C258.932 28.4064 258.651 28.8161 258.469 29.3169V36.0316H254.144V29.2941C254.144 28.7023 254.023 28.2774 253.78 28.0195C253.552 27.7463 253.272 27.6098 252.938 27.6098C252.589 27.6098 252.217 27.7691 251.822 28.0878C251.443 28.4064 251.162 28.8161 250.98 29.3169V36.0316H246.656V24.059H250.548V25.8344C250.973 25.1819 251.557 24.6887 252.3 24.3549C253.044 24.0058 253.924 23.8313 254.941 23.8313C255.426 23.8313 255.851 23.892 256.215 24.0134C256.58 24.1197 256.891 24.2714 257.149 24.4687C257.422 24.6659 257.634 24.886 257.786 25.1288C257.953 25.3715 258.082 25.6295 258.173 25.9026C258.598 25.2501 259.174 24.7418 259.903 24.3776C260.646 24.0134 261.489 23.8313 262.429 23.8313C263.218 23.8313 263.841 23.9831 264.296 24.2866C264.766 24.5749 265.123 24.9391 265.366 25.3791C265.608 25.8192 265.768 26.2896 265.844 26.7903C265.919 27.2911 265.957 27.7463 265.957 28.156V36.0316Z" fill="#32936F"/>
<path d="M0.933226 31.6613C0.978749 31.6917 1.07738 31.7448 1.22913 31.8207C1.38087 31.8965 1.57055 31.9724 1.79817 32.0483C2.02578 32.1242 2.28375 32.1924 2.57206 32.2531C2.87555 32.3138 3.18663 32.3442 3.50529 32.3442C3.97569 32.3442 4.35505 32.2683 4.64337 32.1166C4.93168 31.9648 5.15171 31.722 5.30345 31.3882C5.4552 31.0392 5.55383 30.5991 5.59936 30.068C5.64488 29.5217 5.66764 28.8617 5.66764 28.0878V19.8708H10.1062V28.0878C10.1062 29.3169 10.0379 30.4398 9.9013 31.4565C9.76473 32.458 9.46883 33.3153 9.0136 34.0285C8.55836 34.7417 7.89069 35.2956 7.01058 35.6901C6.14563 36.0847 4.97721 36.2819 3.50529 36.2819C2.13959 36.2819 0.971162 35.9481 0 35.2804L0.933226 31.6613Z" fill="#32936F"/>
<path d="M20.3775 36.2592C19.3001 36.2592 18.3517 36.0923 17.5323 35.7584C16.7281 35.4094 16.0452 34.9542 15.4838 34.3927C14.9375 33.8161 14.5202 33.156 14.2319 32.4125C13.9587 31.6537 13.8222 30.8647 13.8222 30.0453C13.8222 29.2258 13.9587 28.4444 14.2319 27.7008C14.5202 26.9421 14.9375 26.282 15.4838 25.7206C16.0452 25.1439 16.7281 24.6887 17.5323 24.3549C18.3517 24.0058 19.3001 23.8313 20.3775 23.8313C21.4397 23.8313 22.3805 24.0058 23.1999 24.3549C24.0194 24.6887 24.7022 25.1439 25.2485 25.7206C25.8099 26.282 26.2272 26.9421 26.5004 27.7008C26.7887 28.4444 26.9329 29.2258 26.9329 30.0453C26.9329 30.8647 26.7887 31.6537 26.5004 32.4125C26.2272 33.156 25.8099 33.8161 25.2485 34.3927C24.7022 34.9542 24.0194 35.4094 23.1999 35.7584C22.3805 36.0923 21.4397 36.2592 20.3775 36.2592ZM18.2607 30.0453C18.2607 30.8495 18.4579 31.4792 18.8525 31.9345C19.247 32.3897 19.7554 32.6173 20.3775 32.6173C20.9997 32.6173 21.508 32.3897 21.9025 31.9345C22.2971 31.4792 22.4943 30.8495 22.4943 30.0453C22.4943 29.241 22.2971 28.6113 21.9025 28.156C21.508 27.7008 20.9997 27.4732 20.3775 27.4732C19.7554 27.4732 19.247 27.7008 18.8525 28.156C18.4579 28.6113 18.2607 29.241 18.2607 30.0453Z" fill="#32936F"/>
<path d="M38.365 36.2592C36.5593 36.2592 35.2695 35.5612 34.4956 34.1651V36.0316H30.7399V19.4156H35.0646V25.8344C35.4136 25.1819 35.9068 24.6887 36.5441 24.3549C37.1814 24.0058 37.9326 23.8313 38.7975 23.8313C39.5259 23.8313 40.2012 23.9907 40.8233 24.3093C41.4606 24.628 42.0069 25.0681 42.4621 25.6295C42.9174 26.1758 43.274 26.8359 43.5319 27.6098C43.7899 28.3685 43.9189 29.1955 43.9189 30.0908C43.9189 30.9861 43.7747 31.8131 43.4864 32.5718C43.2133 33.3153 42.8263 33.9603 42.3256 34.5065C41.84 35.0528 41.2558 35.4853 40.5729 35.8039C39.8901 36.1074 39.1541 36.2592 38.365 36.2592ZM37.1132 32.6173C37.8264 32.6173 38.3954 32.3897 38.8203 31.9345C39.2603 31.4792 39.4804 30.8723 39.4804 30.1135C39.4804 29.7494 39.4197 29.4079 39.2983 29.0893C39.1921 28.7706 39.0403 28.4899 38.843 28.2471C38.6609 28.0043 38.4333 27.8146 38.1602 27.6781C37.9022 27.5415 37.6139 27.4732 37.2953 27.4732C36.84 27.4732 36.4075 27.6401 35.9978 27.974C35.5881 28.2926 35.2771 28.7175 35.0646 29.2486V31.3882C35.6261 32.2076 36.3089 32.6173 37.1132 32.6173Z" fill="#32936F"/>
</svg>
