<svg width="245" height="51" viewBox="0 0 245 51" fill="none" xmlns="http://www.w3.org/2000/svg">
<g filter="url(#filter0_d)">
<path d="M10.5761 40.9332C11.8912 41.2204 13.2809 41.364 14.7452 41.364C15.9328 41.364 17.0204 41.2452 18.008 41.0077C18.9655 41.2591 19.9701 41.3929 21.0056 41.3929C27.5597 41.3929 32.8729 36.0328 32.8729 29.4209C32.8729 24.3445 29.7411 20.0061 25.3202 18.2648V11.7814C33.1808 13.7315 39.0112 20.8893 39.0112 29.4209C39.0112 39.4528 30.9498 47.5853 21.0056 47.5853C11.0614 47.5853 3 39.4528 3 29.4209C3 20.6895 9.10675 13.397 17.2466 11.653V18.062C12.5348 19.6481 9.13827 24.1344 9.13827 29.4209C9.13827 31.4913 9.65923 33.4389 10.5761 35.1377V40.9332Z" fill="#32936F"/>
<path d="M17.5907 33.962C16.7779 33.962 16.0065 33.8808 15.2765 33.7183V30.1556C15.5174 30.2021 15.7732 30.2524 16.0442 30.3065C16.3151 30.3684 16.6086 30.3993 16.9247 30.3993C17.6622 30.3993 18.189 30.1711 18.5051 29.7147C18.8212 29.2582 18.9793 28.4768 18.9793 27.3705V11.6694H23.4609V26.976C23.4609 29.2737 22.9717 31.0105 21.9934 32.1865C21.015 33.3702 19.5475 33.962 17.5907 33.962Z" fill="#32936F"/>
<path d="M18.9595 3H23.4609V11.6694H18.9595V3Z" fill="#32936F"/>
</g>
<g filter="url(#filter1_d)">
<mask id="path-2-outside-1" maskUnits="userSpaceOnUse" x="50.121" y="14.9013" width="191" height="28" fill="black">
<rect fill="white" x="50.121" y="14.9013" width="191" height="28"/>
<path d="M53.5894 41.052C52.6315 41.052 51.8087 40.9496 51.121 40.745V37.7976C51.6941 37.9532 52.2794 38.0309 52.8771 38.0309C53.5075 38.0309 53.966 37.8549 54.2525 37.5029C54.5473 37.1508 54.6946 36.631 54.6946 35.9432V21.2802H58.4402V36.4959C58.4402 37.9532 58.0186 39.0748 57.1753 39.8608C56.332 40.6549 55.1367 41.052 53.5894 41.052ZM54.535 17.7311C54.535 16.5112 55.2145 15.9013 56.5736 15.9013C57.9326 15.9013 58.6121 16.5112 58.6121 17.7311C58.6121 18.3124 58.4402 18.7668 58.0964 19.0943C57.7607 19.4136 57.2531 19.5732 56.5736 19.5732C55.2145 19.5732 54.535 18.9592 54.535 17.7311ZM65.618 28.1205C65.618 29.4796 65.839 30.507 66.2811 31.2029C66.7314 31.8988 67.4601 32.2468 68.4671 32.2468C69.4659 32.2468 70.1823 31.9029 70.6162 31.2152C71.0583 30.5193 71.2793 29.4877 71.2793 28.1205C71.2793 26.7614 71.0583 25.7422 70.6162 25.0626C70.1741 24.3831 69.4495 24.0433 68.4425 24.0433C67.4437 24.0433 66.7232 24.3831 66.2811 25.0626C65.839 25.734 65.618 26.7533 65.618 28.1205ZM75.1109 28.1205C75.1109 30.3556 74.5214 32.1035 73.3425 33.3643C72.1635 34.6251 70.522 35.2555 68.4179 35.2555C67.0998 35.2555 65.9373 34.969 64.9303 34.3959C63.9232 33.8146 63.1496 32.9836 62.6092 31.9029C62.0689 30.8222 61.7987 29.5614 61.7987 28.1205C61.7987 25.8772 62.3841 24.1334 63.5548 22.889C64.7256 21.6445 66.3712 21.0223 68.4916 21.0223C69.8097 21.0223 70.9723 21.3089 71.9793 21.882C72.9863 22.4551 73.76 23.2779 74.3004 24.3504C74.8407 25.4229 75.1109 26.6796 75.1109 28.1205ZM86.0956 21.0223C87.7167 21.0223 88.9857 21.6568 89.9026 22.9258C90.8196 24.1866 91.278 25.9182 91.278 28.1205C91.278 30.3883 90.8032 32.1444 89.8535 33.3889C88.912 34.6333 87.6266 35.2555 85.9974 35.2555C84.3845 35.2555 83.1196 34.6702 82.2027 33.4994H81.9448L81.3185 35.0099H78.4571V15.9013H82.2027V20.3469C82.2027 20.9118 82.1536 21.8165 82.0553 23.0609H82.2027C83.0787 21.7018 84.3763 21.0223 86.0956 21.0223ZM84.8921 24.0188C83.967 24.0188 83.2916 24.3053 82.8658 24.8784C82.4401 25.4433 82.219 26.3808 82.2027 27.6907V28.0959C82.2027 29.5696 82.4196 30.6257 82.8535 31.2643C83.2956 31.9029 83.9915 32.2222 84.9412 32.2222C85.7108 32.2222 86.3208 31.8702 86.7711 31.1661C87.2295 30.4538 87.4588 29.4222 87.4588 28.0714C87.4588 26.7205 87.2295 25.7094 86.7711 25.0381C86.3126 24.3585 85.6863 24.0188 84.8921 24.0188ZM105.517 30.024C105.517 31.645 104.932 32.9222 103.761 33.8555C102.598 34.7889 100.977 35.2555 98.8979 35.2555C96.9821 35.2555 95.2874 34.8953 93.8137 34.1748V30.638C95.0254 31.1784 96.0488 31.5591 96.8839 31.7801C97.7271 32.0012 98.4967 32.1117 99.1926 32.1117C100.028 32.1117 100.666 31.952 101.108 31.6328C101.559 31.3135 101.784 30.8386 101.784 30.2082C101.784 29.8562 101.686 29.5451 101.489 29.2749C101.293 28.9965 101.002 28.7304 100.617 28.4766C100.241 28.2228 99.4669 27.8176 98.2961 27.2609C97.1991 26.7451 96.3763 26.2498 95.8277 25.7749C95.2792 25.3001 94.8412 24.7474 94.5137 24.117C94.1862 23.4866 94.0225 22.7498 94.0225 21.9065C94.0225 20.3182 94.5588 19.0697 95.6313 18.1609C96.712 17.2522 98.202 16.7978 100.101 16.7978C101.035 16.7978 101.923 16.9083 102.766 17.1294C103.618 17.3504 104.506 17.6615 105.431 18.0627L104.203 21.0223C103.245 20.6293 102.451 20.3551 101.821 20.1995C101.198 20.044 100.584 19.9662 99.9786 19.9662C99.2581 19.9662 98.7055 20.134 98.3207 20.4697C97.9359 20.8054 97.7435 21.2434 97.7435 21.7837C97.7435 22.1194 97.8213 22.4141 97.9769 22.6679C98.1324 22.9135 98.378 23.155 98.7137 23.3925C99.0575 23.6217 99.864 24.0392 101.133 24.6451C102.811 25.4474 103.962 26.2539 104.584 27.0644C105.206 27.8667 105.517 28.8532 105.517 30.024ZM117.447 35.0099L116.723 33.1433H116.625C115.994 33.9374 115.343 34.49 114.672 34.8011C114.009 35.1041 113.141 35.2555 112.069 35.2555C110.75 35.2555 109.711 34.8789 108.949 34.1257C108.196 33.3725 107.82 32.3 107.82 30.9082C107.82 29.4509 108.327 28.3784 109.342 27.6907C110.366 26.9948 111.905 26.61 113.96 26.5363L116.342 26.4626V25.8609C116.342 24.4691 115.63 23.7732 114.205 23.7732C113.108 23.7732 111.819 24.1047 110.337 24.7679L109.097 22.2381C110.677 21.4112 112.429 20.9978 114.353 20.9978C116.195 20.9978 117.607 21.3989 118.59 22.2013C119.572 23.0036 120.063 24.2235 120.063 25.8609V35.0099H117.447ZM116.342 28.6486L114.893 28.6977C113.804 28.7304 112.994 28.9269 112.462 29.2872C111.929 29.6474 111.663 30.1959 111.663 30.9328C111.663 31.9889 112.269 32.517 113.481 32.517C114.349 32.517 115.04 32.2673 115.556 31.7678C116.08 31.2684 116.342 30.6053 116.342 29.7784V28.6486ZM136.476 35.0099H132.73V26.9907C132.73 26.0001 132.563 25.2591 132.227 24.7679C131.899 24.2685 131.38 24.0188 130.667 24.0188C129.709 24.0188 129.014 24.3708 128.58 25.0749C128.146 25.779 127.929 26.9375 127.929 28.5503V35.0099H124.183V21.2802H127.045L127.548 23.0363H127.757C128.125 22.4059 128.657 21.9147 129.353 21.5627C130.049 21.2024 130.847 21.0223 131.748 21.0223C133.803 21.0223 135.195 21.6937 135.923 23.0363H136.255C136.623 22.3977 137.164 21.9024 137.876 21.5504C138.596 21.1983 139.407 21.0223 140.308 21.0223C141.863 21.0223 143.038 21.4235 143.832 22.2258C144.634 23.02 145.036 24.2971 145.036 26.0574V35.0099H141.278V26.9907C141.278 26.0001 141.11 25.2591 140.774 24.7679C140.447 24.2685 139.927 24.0188 139.215 24.0188C138.298 24.0188 137.61 24.3463 137.151 25.0012C136.701 25.6562 136.476 26.696 136.476 28.1205V35.0099ZM158.869 35.0099L158.366 33.2538H158.169C157.768 33.8924 157.199 34.3877 156.462 34.7397C155.726 35.0836 154.886 35.2555 153.945 35.2555C152.332 35.2555 151.116 34.8257 150.298 33.9661C149.479 33.0982 149.07 31.8538 149.07 30.2328V21.2802H152.815V29.2994C152.815 30.2901 152.991 31.0351 153.343 31.5345C153.695 32.0257 154.256 32.2713 155.026 32.2713C156.074 32.2713 156.831 31.9234 157.298 31.2275C157.764 30.5234 157.998 29.3608 157.998 27.7398V21.2802H161.743V35.0099H158.869ZM178.598 35.0099H174.852V26.9907C174.852 25.0094 174.116 24.0188 172.642 24.0188C171.594 24.0188 170.837 24.3749 170.37 25.0872C169.903 25.7995 169.67 26.9538 169.67 28.5503V35.0099H165.924V15.9013H169.67V19.7943C169.67 20.0972 169.641 20.8095 169.584 21.9311L169.498 23.0363H169.695C170.53 21.6937 171.856 21.0223 173.673 21.0223C175.286 21.0223 176.51 21.4562 177.345 22.3241C178.18 23.1919 178.598 24.4363 178.598 26.0574V35.0099ZM182.178 33.2538C182.178 32.5661 182.362 32.0462 182.73 31.6942C183.099 31.3421 183.635 31.1661 184.339 31.1661C185.018 31.1661 185.542 31.3462 185.911 31.7064C186.287 32.0667 186.476 32.5825 186.476 33.2538C186.476 33.9006 186.287 34.4123 185.911 34.7889C185.534 35.1573 185.01 35.3415 184.339 35.3415C183.651 35.3415 183.119 35.1614 182.742 34.8011C182.366 34.4327 182.178 33.9169 182.178 33.2538ZM195.704 35.2555C191.431 35.2555 189.294 32.9099 189.294 28.2187C189.294 25.8854 189.875 24.1047 191.038 22.8767C192.2 21.6404 193.866 21.0223 196.036 21.0223C197.624 21.0223 199.049 21.3334 200.31 21.9556L199.204 24.8539C198.615 24.6164 198.066 24.424 197.559 24.2767C197.051 24.1211 196.544 24.0433 196.036 24.0433C194.087 24.0433 193.113 25.427 193.113 28.1942C193.113 30.8795 194.087 32.2222 196.036 32.2222C196.756 32.2222 197.424 32.1281 198.038 31.9398C198.652 31.7433 199.266 31.4404 199.88 31.031V34.2362C199.274 34.621 198.66 34.8871 198.038 35.0345C197.424 35.1818 196.646 35.2555 195.704 35.2555ZM206.308 28.1205C206.308 29.4796 206.529 30.507 206.972 31.2029C207.422 31.8988 208.151 32.2468 209.158 32.2468C210.156 32.2468 210.873 31.9029 211.307 31.2152C211.749 30.5193 211.97 29.4877 211.97 28.1205C211.97 26.7614 211.749 25.7422 211.307 25.0626C210.865 24.3831 210.14 24.0433 209.133 24.0433C208.134 24.0433 207.414 24.3831 206.972 25.0626C206.529 25.734 206.308 26.7533 206.308 28.1205ZM215.801 28.1205C215.801 30.3556 215.212 32.1035 214.033 33.3643C212.854 34.6251 211.212 35.2555 209.108 35.2555C207.79 35.2555 206.628 34.969 205.621 34.3959C204.614 33.8146 203.84 32.9836 203.3 31.9029C202.759 30.8222 202.489 29.5614 202.489 28.1205C202.489 25.8772 203.075 24.1334 204.245 22.889C205.416 21.6445 207.062 21.0223 209.182 21.0223C210.5 21.0223 211.663 21.3089 212.67 21.882C213.677 22.4551 214.45 23.2779 214.991 24.3504C215.531 25.4229 215.801 26.6796 215.801 28.1205ZM231.44 35.0099H227.695V26.9907C227.695 26.0001 227.527 25.2591 227.191 24.7679C226.864 24.2685 226.344 24.0188 225.632 24.0188C224.674 24.0188 223.978 24.3708 223.544 25.0749C223.11 25.779 222.893 26.9375 222.893 28.5503V35.0099H219.148V21.2802H222.009L222.512 23.0363H222.721C223.09 22.4059 223.622 21.9147 224.318 21.5627C225.014 21.2024 225.812 21.0223 226.712 21.0223C228.767 21.0223 230.159 21.6937 230.888 23.0363H231.219C231.588 22.3977 232.128 21.9024 232.84 21.5504C233.561 21.1983 234.371 21.0223 235.272 21.0223C236.828 21.0223 238.002 21.4235 238.796 22.2258C239.599 23.02 240 24.2971 240 26.0574V35.0099H236.242V26.9907C236.242 26.0001 236.074 25.2591 235.739 24.7679C235.411 24.2685 234.891 24.0188 234.179 24.0188C233.262 24.0188 232.574 24.3463 232.116 25.0012C231.666 25.6562 231.44 26.696 231.44 28.1205V35.0099Z"/>
</mask>
<path d="M53.5894 41.052C52.6315 41.052 51.8087 40.9496 51.121 40.745V37.7976C51.6941 37.9532 52.2794 38.0309 52.8771 38.0309C53.5075 38.0309 53.966 37.8549 54.2525 37.5029C54.5473 37.1508 54.6946 36.631 54.6946 35.9432V21.2802H58.4402V36.4959C58.4402 37.9532 58.0186 39.0748 57.1753 39.8608C56.332 40.6549 55.1367 41.052 53.5894 41.052ZM54.535 17.7311C54.535 16.5112 55.2145 15.9013 56.5736 15.9013C57.9326 15.9013 58.6121 16.5112 58.6121 17.7311C58.6121 18.3124 58.4402 18.7668 58.0964 19.0943C57.7607 19.4136 57.2531 19.5732 56.5736 19.5732C55.2145 19.5732 54.535 18.9592 54.535 17.7311ZM65.618 28.1205C65.618 29.4796 65.839 30.507 66.2811 31.2029C66.7314 31.8988 67.4601 32.2468 68.4671 32.2468C69.4659 32.2468 70.1823 31.9029 70.6162 31.2152C71.0583 30.5193 71.2793 29.4877 71.2793 28.1205C71.2793 26.7614 71.0583 25.7422 70.6162 25.0626C70.1741 24.3831 69.4495 24.0433 68.4425 24.0433C67.4437 24.0433 66.7232 24.3831 66.2811 25.0626C65.839 25.734 65.618 26.7533 65.618 28.1205ZM75.1109 28.1205C75.1109 30.3556 74.5214 32.1035 73.3425 33.3643C72.1635 34.6251 70.522 35.2555 68.4179 35.2555C67.0998 35.2555 65.9373 34.969 64.9303 34.3959C63.9232 33.8146 63.1496 32.9836 62.6092 31.9029C62.0689 30.8222 61.7987 29.5614 61.7987 28.1205C61.7987 25.8772 62.3841 24.1334 63.5548 22.889C64.7256 21.6445 66.3712 21.0223 68.4916 21.0223C69.8097 21.0223 70.9723 21.3089 71.9793 21.882C72.9863 22.4551 73.76 23.2779 74.3004 24.3504C74.8407 25.4229 75.1109 26.6796 75.1109 28.1205ZM86.0956 21.0223C87.7167 21.0223 88.9857 21.6568 89.9026 22.9258C90.8196 24.1866 91.278 25.9182 91.278 28.1205C91.278 30.3883 90.8032 32.1444 89.8535 33.3889C88.912 34.6333 87.6266 35.2555 85.9974 35.2555C84.3845 35.2555 83.1196 34.6702 82.2027 33.4994H81.9448L81.3185 35.0099H78.4571V15.9013H82.2027V20.3469C82.2027 20.9118 82.1536 21.8165 82.0553 23.0609H82.2027C83.0787 21.7018 84.3763 21.0223 86.0956 21.0223ZM84.8921 24.0188C83.967 24.0188 83.2916 24.3053 82.8658 24.8784C82.4401 25.4433 82.219 26.3808 82.2027 27.6907V28.0959C82.2027 29.5696 82.4196 30.6257 82.8535 31.2643C83.2956 31.9029 83.9915 32.2222 84.9412 32.2222C85.7108 32.2222 86.3208 31.8702 86.7711 31.1661C87.2295 30.4538 87.4588 29.4222 87.4588 28.0714C87.4588 26.7205 87.2295 25.7094 86.7711 25.0381C86.3126 24.3585 85.6863 24.0188 84.8921 24.0188ZM105.517 30.024C105.517 31.645 104.932 32.9222 103.761 33.8555C102.598 34.7889 100.977 35.2555 98.8979 35.2555C96.9821 35.2555 95.2874 34.8953 93.8137 34.1748V30.638C95.0254 31.1784 96.0488 31.5591 96.8839 31.7801C97.7271 32.0012 98.4967 32.1117 99.1926 32.1117C100.028 32.1117 100.666 31.952 101.108 31.6328C101.559 31.3135 101.784 30.8386 101.784 30.2082C101.784 29.8562 101.686 29.5451 101.489 29.2749C101.293 28.9965 101.002 28.7304 100.617 28.4766C100.241 28.2228 99.4669 27.8176 98.2961 27.2609C97.1991 26.7451 96.3763 26.2498 95.8277 25.7749C95.2792 25.3001 94.8412 24.7474 94.5137 24.117C94.1862 23.4866 94.0225 22.7498 94.0225 21.9065C94.0225 20.3182 94.5588 19.0697 95.6313 18.1609C96.712 17.2522 98.202 16.7978 100.101 16.7978C101.035 16.7978 101.923 16.9083 102.766 17.1294C103.618 17.3504 104.506 17.6615 105.431 18.0627L104.203 21.0223C103.245 20.6293 102.451 20.3551 101.821 20.1995C101.198 20.044 100.584 19.9662 99.9786 19.9662C99.2581 19.9662 98.7055 20.134 98.3207 20.4697C97.9359 20.8054 97.7435 21.2434 97.7435 21.7837C97.7435 22.1194 97.8213 22.4141 97.9769 22.6679C98.1324 22.9135 98.378 23.155 98.7137 23.3925C99.0575 23.6217 99.864 24.0392 101.133 24.6451C102.811 25.4474 103.962 26.2539 104.584 27.0644C105.206 27.8667 105.517 28.8532 105.517 30.024ZM117.447 35.0099L116.723 33.1433H116.625C115.994 33.9374 115.343 34.49 114.672 34.8011C114.009 35.1041 113.141 35.2555 112.069 35.2555C110.75 35.2555 109.711 34.8789 108.949 34.1257C108.196 33.3725 107.82 32.3 107.82 30.9082C107.82 29.4509 108.327 28.3784 109.342 27.6907C110.366 26.9948 111.905 26.61 113.96 26.5363L116.342 26.4626V25.8609C116.342 24.4691 115.63 23.7732 114.205 23.7732C113.108 23.7732 111.819 24.1047 110.337 24.7679L109.097 22.2381C110.677 21.4112 112.429 20.9978 114.353 20.9978C116.195 20.9978 117.607 21.3989 118.59 22.2013C119.572 23.0036 120.063 24.2235 120.063 25.8609V35.0099H117.447ZM116.342 28.6486L114.893 28.6977C113.804 28.7304 112.994 28.9269 112.462 29.2872C111.929 29.6474 111.663 30.1959 111.663 30.9328C111.663 31.9889 112.269 32.517 113.481 32.517C114.349 32.517 115.04 32.2673 115.556 31.7678C116.08 31.2684 116.342 30.6053 116.342 29.7784V28.6486ZM136.476 35.0099H132.73V26.9907C132.73 26.0001 132.563 25.2591 132.227 24.7679C131.899 24.2685 131.38 24.0188 130.667 24.0188C129.709 24.0188 129.014 24.3708 128.58 25.0749C128.146 25.779 127.929 26.9375 127.929 28.5503V35.0099H124.183V21.2802H127.045L127.548 23.0363H127.757C128.125 22.4059 128.657 21.9147 129.353 21.5627C130.049 21.2024 130.847 21.0223 131.748 21.0223C133.803 21.0223 135.195 21.6937 135.923 23.0363H136.255C136.623 22.3977 137.164 21.9024 137.876 21.5504C138.596 21.1983 139.407 21.0223 140.308 21.0223C141.863 21.0223 143.038 21.4235 143.832 22.2258C144.634 23.02 145.036 24.2971 145.036 26.0574V35.0099H141.278V26.9907C141.278 26.0001 141.11 25.2591 140.774 24.7679C140.447 24.2685 139.927 24.0188 139.215 24.0188C138.298 24.0188 137.61 24.3463 137.151 25.0012C136.701 25.6562 136.476 26.696 136.476 28.1205V35.0099ZM158.869 35.0099L158.366 33.2538H158.169C157.768 33.8924 157.199 34.3877 156.462 34.7397C155.726 35.0836 154.886 35.2555 153.945 35.2555C152.332 35.2555 151.116 34.8257 150.298 33.9661C149.479 33.0982 149.07 31.8538 149.07 30.2328V21.2802H152.815V29.2994C152.815 30.2901 152.991 31.0351 153.343 31.5345C153.695 32.0257 154.256 32.2713 155.026 32.2713C156.074 32.2713 156.831 31.9234 157.298 31.2275C157.764 30.5234 157.998 29.3608 157.998 27.7398V21.2802H161.743V35.0099H158.869ZM178.598 35.0099H174.852V26.9907C174.852 25.0094 174.116 24.0188 172.642 24.0188C171.594 24.0188 170.837 24.3749 170.37 25.0872C169.903 25.7995 169.67 26.9538 169.67 28.5503V35.0099H165.924V15.9013H169.67V19.7943C169.67 20.0972 169.641 20.8095 169.584 21.9311L169.498 23.0363H169.695C170.53 21.6937 171.856 21.0223 173.673 21.0223C175.286 21.0223 176.51 21.4562 177.345 22.3241C178.18 23.1919 178.598 24.4363 178.598 26.0574V35.0099ZM182.178 33.2538C182.178 32.5661 182.362 32.0462 182.73 31.6942C183.099 31.3421 183.635 31.1661 184.339 31.1661C185.018 31.1661 185.542 31.3462 185.911 31.7064C186.287 32.0667 186.476 32.5825 186.476 33.2538C186.476 33.9006 186.287 34.4123 185.911 34.7889C185.534 35.1573 185.01 35.3415 184.339 35.3415C183.651 35.3415 183.119 35.1614 182.742 34.8011C182.366 34.4327 182.178 33.9169 182.178 33.2538ZM195.704 35.2555C191.431 35.2555 189.294 32.9099 189.294 28.2187C189.294 25.8854 189.875 24.1047 191.038 22.8767C192.2 21.6404 193.866 21.0223 196.036 21.0223C197.624 21.0223 199.049 21.3334 200.31 21.9556L199.204 24.8539C198.615 24.6164 198.066 24.424 197.559 24.2767C197.051 24.1211 196.544 24.0433 196.036 24.0433C194.087 24.0433 193.113 25.427 193.113 28.1942C193.113 30.8795 194.087 32.2222 196.036 32.2222C196.756 32.2222 197.424 32.1281 198.038 31.9398C198.652 31.7433 199.266 31.4404 199.88 31.031V34.2362C199.274 34.621 198.66 34.8871 198.038 35.0345C197.424 35.1818 196.646 35.2555 195.704 35.2555ZM206.308 28.1205C206.308 29.4796 206.529 30.507 206.972 31.2029C207.422 31.8988 208.151 32.2468 209.158 32.2468C210.156 32.2468 210.873 31.9029 211.307 31.2152C211.749 30.5193 211.97 29.4877 211.97 28.1205C211.97 26.7614 211.749 25.7422 211.307 25.0626C210.865 24.3831 210.14 24.0433 209.133 24.0433C208.134 24.0433 207.414 24.3831 206.972 25.0626C206.529 25.734 206.308 26.7533 206.308 28.1205ZM215.801 28.1205C215.801 30.3556 215.212 32.1035 214.033 33.3643C212.854 34.6251 211.212 35.2555 209.108 35.2555C207.79 35.2555 206.628 34.969 205.621 34.3959C204.614 33.8146 203.84 32.9836 203.3 31.9029C202.759 30.8222 202.489 29.5614 202.489 28.1205C202.489 25.8772 203.075 24.1334 204.245 22.889C205.416 21.6445 207.062 21.0223 209.182 21.0223C210.5 21.0223 211.663 21.3089 212.67 21.882C213.677 22.4551 214.45 23.2779 214.991 24.3504C215.531 25.4229 215.801 26.6796 215.801 28.1205ZM231.44 35.0099H227.695V26.9907C227.695 26.0001 227.527 25.2591 227.191 24.7679C226.864 24.2685 226.344 24.0188 225.632 24.0188C224.674 24.0188 223.978 24.3708 223.544 25.0749C223.11 25.779 222.893 26.9375 222.893 28.5503V35.0099H219.148V21.2802H222.009L222.512 23.0363H222.721C223.09 22.4059 223.622 21.9147 224.318 21.5627C225.014 21.2024 225.812 21.0223 226.712 21.0223C228.767 21.0223 230.159 21.6937 230.888 23.0363H231.219C231.588 22.3977 232.128 21.9024 232.84 21.5504C233.561 21.1983 234.371 21.0223 235.272 21.0223C236.828 21.0223 238.002 21.4235 238.796 22.2258C239.599 23.02 240 24.2971 240 26.0574V35.0099H236.242V26.9907C236.242 26.0001 236.074 25.2591 235.739 24.7679C235.411 24.2685 234.891 24.0188 234.179 24.0188C233.262 24.0188 232.574 24.3463 232.116 25.0012C231.666 25.6562 231.44 26.696 231.44 28.1205V35.0099Z" stroke="#22BC83" stroke-width="2" mask="url(#path-2-outside-1)"/>
</g>
<path d="M193.345 40.4112H194.463L195.17 42.5179C195.23 42.701 195.272 42.9175 195.294 43.1676H195.314C195.339 42.9376 195.387 42.7211 195.458 42.5179L196.151 40.4112H197.247L195.662 44.6346C195.517 45.0253 195.31 45.3178 195.04 45.5121C194.772 45.7064 194.458 45.8035 194.098 45.8035C193.922 45.8035 193.749 45.7845 193.579 45.7465V44.936C193.702 44.9651 193.836 44.9796 193.981 44.9796C194.162 44.9796 194.319 44.9237 194.453 44.8121C194.59 44.7027 194.696 44.5364 194.772 44.3131L194.832 44.1289L193.345 40.4112Z" fill="#292F36"/>
<path d="M198.6 42.2767C198.6 42.6474 198.66 42.9276 198.781 43.1174C198.903 43.3072 199.102 43.4021 199.377 43.4021C199.649 43.4021 199.845 43.3083 199.963 43.1207C200.083 42.9309 200.144 42.6496 200.144 42.2767C200.144 41.9061 200.083 41.6281 199.963 41.4428C199.842 41.2574 199.645 41.1648 199.37 41.1648C199.098 41.1648 198.901 41.2574 198.781 41.4428C198.66 41.6258 198.6 41.9038 198.6 42.2767ZM201.189 42.2767C201.189 42.8863 201.028 43.363 200.706 43.7069C200.385 44.0507 199.937 44.2226 199.363 44.2226C199.004 44.2226 198.687 44.1445 198.412 43.9882C198.138 43.8297 197.927 43.603 197.779 43.3083C197.632 43.0136 197.558 42.6697 197.558 42.2767C197.558 41.6649 197.718 41.1893 198.037 40.8499C198.356 40.5105 198.805 40.3409 199.383 40.3409C199.743 40.3409 200.06 40.419 200.335 40.5753C200.609 40.7316 200.82 40.956 200.968 41.2485C201.115 41.541 201.189 41.8837 201.189 42.2767Z" fill="#292F36"/>
<path d="M204.685 44.1557L204.548 43.6767H204.494C204.385 43.8509 204.23 43.986 204.029 44.082C203.828 44.1757 203.599 44.2226 203.342 44.2226C202.902 44.2226 202.571 44.1054 202.348 43.871C202.124 43.6343 202.013 43.2949 202.013 42.8528V40.4112H203.034V42.5982C203.034 42.8684 203.082 43.0716 203.178 43.2078C203.274 43.3418 203.427 43.4088 203.637 43.4088C203.923 43.4088 204.129 43.3139 204.257 43.1241C204.384 42.9321 204.448 42.615 204.448 42.1729V40.4112H205.469V44.1557H204.685Z" fill="#292F36"/>
<path d="M208.631 40.3409C208.769 40.3409 208.884 40.3509 208.976 40.371L208.899 41.3289C208.816 41.3066 208.716 41.2954 208.597 41.2954C208.271 41.2954 208.017 41.3791 207.834 41.5466C207.653 41.714 207.562 41.9485 207.562 42.2499V44.1557H206.541V40.4112H207.315L207.465 41.0408H207.515C207.632 40.831 207.788 40.6624 207.984 40.5351C208.183 40.4056 208.399 40.3409 208.631 40.3409Z" fill="#292F36"/>
<path d="M211.136 45.8035C210.875 45.8035 210.65 45.7756 210.463 45.7198V44.9159C210.619 44.9584 210.779 44.9796 210.942 44.9796C211.114 44.9796 211.239 44.9316 211.317 44.8356C211.397 44.7395 211.437 44.5978 211.437 44.4102V40.4112H212.459V44.5609C212.459 44.9584 212.344 45.2643 212.114 45.4786C211.884 45.6952 211.558 45.8035 211.136 45.8035ZM211.394 39.4433C211.394 39.1106 211.579 38.9442 211.95 38.9442C212.321 38.9442 212.506 39.1106 212.506 39.4433C212.506 39.6018 212.459 39.7257 212.365 39.815C212.274 39.9021 212.135 39.9456 211.95 39.9456C211.579 39.9456 211.394 39.7782 211.394 39.4433Z" fill="#292F36"/>
<path d="M214.348 42.2767C214.348 42.6474 214.408 42.9276 214.529 43.1174C214.652 43.3072 214.85 43.4021 215.125 43.4021C215.397 43.4021 215.593 43.3083 215.711 43.1207C215.832 42.9309 215.892 42.6496 215.892 42.2767C215.892 41.9061 215.832 41.6281 215.711 41.4428C215.591 41.2574 215.393 41.1648 215.118 41.1648C214.846 41.1648 214.649 41.2574 214.529 41.4428C214.408 41.6258 214.348 41.9038 214.348 42.2767ZM216.937 42.2767C216.937 42.8863 216.776 43.363 216.455 43.7069C216.133 44.0507 215.685 44.2226 215.112 44.2226C214.752 44.2226 214.435 44.1445 214.16 43.9882C213.886 43.8297 213.675 43.603 213.527 43.3083C213.38 43.0136 213.306 42.6697 213.306 42.2767C213.306 41.6649 213.466 41.1893 213.785 40.8499C214.105 40.5105 214.553 40.3409 215.132 40.3409C215.491 40.3409 215.808 40.419 216.083 40.5753C216.358 40.7316 216.569 40.956 216.716 41.2485C216.863 41.541 216.937 41.8837 216.937 42.2767Z" fill="#292F36"/>
<path d="M219.864 40.3409C220.306 40.3409 220.652 40.5139 220.902 40.86C221.153 41.2038 221.278 41.6761 221.278 42.2767C221.278 42.8952 221.148 43.3742 220.889 43.7136C220.632 44.0529 220.282 44.2226 219.837 44.2226C219.398 44.2226 219.053 44.063 218.802 43.7437H218.732L218.561 44.1557H217.781V38.9442H218.802V40.1566C218.802 40.3107 218.789 40.5574 218.762 40.8968H218.802C219.041 40.5262 219.395 40.3409 219.864 40.3409ZM219.536 41.1581C219.284 41.1581 219.099 41.2362 218.983 41.3925C218.867 41.5466 218.807 41.8022 218.802 42.1595V42.27C218.802 42.6719 218.862 42.96 218.98 43.1341C219.101 43.3083 219.29 43.3954 219.549 43.3954C219.759 43.3954 219.926 43.2994 220.048 43.1073C220.173 42.9131 220.236 42.6317 220.236 42.2633C220.236 41.8949 220.173 41.6192 220.048 41.4361C219.923 41.2507 219.753 41.1581 219.536 41.1581Z" fill="#292F36"/>
<path d="M223.86 39.4433C223.86 39.1106 224.045 38.9442 224.416 38.9442C224.786 38.9442 224.972 39.1106 224.972 39.4433C224.972 39.6018 224.925 39.7257 224.831 39.815C224.74 39.9021 224.601 39.9456 224.416 39.9456C224.045 39.9456 223.86 39.7782 223.86 39.4433ZM224.925 44.1557H223.903V40.4112H224.925V44.1557Z" fill="#292F36"/>
<path d="M228.612 43.0437C228.612 43.4277 228.478 43.7202 228.211 43.9212C227.945 44.1222 227.546 44.2226 227.015 44.2226C226.742 44.2226 226.51 44.2037 226.318 44.1657C226.126 44.13 225.946 44.0764 225.779 44.0049V43.1609C225.969 43.2502 226.182 43.325 226.419 43.3853C226.658 43.4456 226.867 43.4758 227.048 43.4758C227.419 43.4758 227.604 43.3686 227.604 43.1542C227.604 43.0738 227.58 43.0091 227.531 42.96C227.482 42.9086 227.397 42.8517 227.276 42.7892C227.156 42.7244 226.995 42.6496 226.794 42.5648C226.506 42.4442 226.294 42.3325 226.157 42.2298C226.023 42.1271 225.925 42.0099 225.863 41.8782C225.802 41.7442 225.772 41.5801 225.772 41.3858C225.772 41.0531 225.901 40.7964 226.157 40.6155C226.416 40.4324 226.783 40.3409 227.256 40.3409C227.707 40.3409 228.146 40.4391 228.572 40.6356L228.264 41.3724C228.077 41.292 227.901 41.2262 227.738 41.1748C227.575 41.1235 227.409 41.0978 227.239 41.0978C226.938 41.0978 226.787 41.1793 226.787 41.3423C226.787 41.4338 226.835 41.5131 226.931 41.5801C227.029 41.6471 227.243 41.7464 227.571 41.8782C227.863 41.9965 228.078 42.107 228.214 42.2097C228.35 42.3124 228.451 42.4308 228.515 42.5648C228.58 42.6987 228.612 42.8584 228.612 43.0437Z" fill="#292F36"/>
<path d="M232.005 42.2767C232.005 42.6474 232.066 42.9276 232.186 43.1174C232.309 43.3072 232.508 43.4021 232.782 43.4021C233.055 43.4021 233.25 43.3083 233.368 43.1207C233.489 42.9309 233.549 42.6496 233.549 42.2767C233.549 41.9061 233.489 41.6281 233.368 41.4428C233.248 41.2574 233.05 41.1648 232.776 41.1648C232.503 41.1648 232.307 41.2574 232.186 41.4428C232.066 41.6258 232.005 41.9038 232.005 42.2767ZM234.594 42.2767C234.594 42.8863 234.433 43.363 234.112 43.7069C233.79 44.0507 233.343 44.2226 232.769 44.2226C232.409 44.2226 232.092 44.1445 231.818 43.9882C231.543 43.8297 231.332 43.603 231.185 43.3083C231.037 43.0136 230.964 42.6697 230.964 42.2767C230.964 41.6649 231.123 41.1893 231.443 40.8499C231.762 40.5105 232.211 40.3409 232.789 40.3409C233.148 40.3409 233.466 40.419 233.74 40.5753C234.015 40.7316 234.226 40.956 234.373 41.2485C234.521 41.541 234.594 41.8837 234.594 42.2767Z" fill="#292F36"/>
<path d="M238.895 44.1557H237.873V41.9686C237.873 41.6984 237.825 41.4963 237.729 41.3624C237.633 41.2262 237.48 41.1581 237.27 41.1581C236.984 41.1581 236.778 41.2541 236.651 41.4461C236.523 41.6359 236.46 41.9518 236.46 42.3939V44.1557H235.438V40.4112H236.219L236.356 40.8901H236.413C236.527 40.7093 236.683 40.5731 236.882 40.4815C237.083 40.3877 237.31 40.3409 237.565 40.3409C238 40.3409 238.331 40.4592 238.556 40.6959C238.782 40.9303 238.895 41.2697 238.895 41.714V44.1557Z" fill="#292F36"/>
<defs>
<filter id="filter0_d" x="0" y="0" width="42.0112" height="50.5853" filterUnits="userSpaceOnUse" color-interpolation-filters="sRGB">
<feFlood flood-opacity="0" result="BackgroundImageFix"/>
<feColorMatrix in="SourceAlpha" type="matrix" values="0 0 0 0 0 0 0 0 0 0 0 0 0 0 0 0 0 0 127 0"/>
<feOffset/>
<feGaussianBlur stdDeviation="1.5"/>
<feColorMatrix type="matrix" values="0 0 0 0 0 0 0 0 0 1 0 0 0 0 0.628866 0 0 0 1 0"/>
<feBlend mode="normal" in2="BackgroundImageFix" result="effect1_dropShadow"/>
<feBlend mode="normal" in="SourceGraphic" in2="effect1_dropShadow" result="shape"/>
</filter>
<filter id="filter1_d" x="46.121" y="10.9013" width="198.879" height="35.1507" filterUnits="userSpaceOnUse" color-interpolation-filters="sRGB">
<feFlood flood-opacity="0" result="BackgroundImageFix"/>
<feColorMatrix in="SourceAlpha" type="matrix" values="0 0 0 0 0 0 0 0 0 0 0 0 0 0 0 0 0 0 127 0"/>
<feOffset/>
<feGaussianBlur stdDeviation="2"/>
<feColorMatrix type="matrix" values="0 0 0 0 0 0 0 0 0 1 0 0 0 0 0.628866 0 0 0 1 0"/>
<feBlend mode="normal" in2="BackgroundImageFix" result="effect1_dropShadow"/>
<feBlend mode="normal" in="SourceGraphic" in2="effect1_dropShadow" result="shape"/>
</filter>
</defs>
</svg>
