<svg width="676" height="556" viewBox="0 0 676 556" fill="none" xmlns="http://www.w3.org/2000/svg">
<path d="M634.511 517.135C646.116 503.921 700.761 438.884 661.922 428.162C632.751 420.11 629.501 464.414 630.48 494.146C625.809 474.114 616.744 450.714 600.817 461.039C577.863 475.918 620.873 508.846 632.108 516.93C632.292 518.574 632.414 519.487 632.414 519.487C632.414 519.487 632.875 518.984 633.696 518.059C634.338 518.508 634.695 518.75 634.695 518.75C634.695 518.75 634.635 518.167 634.511 517.135Z" fill="#E6E6E6"/>
<path d="M46.1998 553.306C59.4905 538.172 122.078 463.682 77.5938 451.402C44.1832 442.179 40.4609 492.922 41.5823 526.975C36.2324 504.033 25.8495 477.232 7.60765 489.057C-18.6824 506.099 30.5789 543.813 43.4468 553.071C43.6581 554.954 43.7975 556 43.7975 556C43.7975 556 44.3253 555.424 45.2662 554.364C46.0012 554.879 46.4101 555.156 46.4101 555.156C46.4101 555.156 46.3416 554.488 46.1998 553.306Z" fill="#E6E6E6"/>
<path d="M192.677 44.3845C191.526 44.3858 190.422 44.8442 189.608 45.6591C188.793 46.474 188.335 47.5789 188.334 48.7313V513.838C188.335 514.991 188.793 516.095 189.608 516.91C190.422 517.725 191.526 518.184 192.677 518.185H567.076C568.228 518.184 569.332 517.725 570.146 516.91C570.96 516.095 571.418 514.991 571.42 513.838V48.7313C571.418 47.5789 570.96 46.474 570.146 45.6591C569.332 44.8442 568.228 44.3858 567.076 44.3845H192.677Z" fill="#E6E6E6"/>
<path d="M507.572 247.488H252.181C250.453 247.488 248.796 246.802 247.574 245.579C246.352 244.356 245.666 242.698 245.666 240.968C245.666 239.239 246.352 237.581 247.574 236.358C248.796 235.135 250.453 234.448 252.181 234.448H507.572C509.3 234.448 510.957 235.135 512.179 236.358C513.4 237.581 514.087 239.239 514.087 240.968C514.087 242.698 513.4 244.356 512.179 245.579C510.957 246.802 509.3 247.488 507.572 247.488Z" fill="white"/>
<path d="M509.765 125.996H340.331C337.944 125.996 336.009 123.076 336.009 119.475C336.009 115.874 337.944 112.955 340.331 112.955H509.765C512.152 112.955 514.087 115.874 514.087 119.475C514.087 123.076 512.152 125.996 509.765 125.996Z" fill="white"/>
<path d="M509.765 163.378H340.331C337.944 163.378 336.009 160.459 336.009 156.858C336.009 153.257 337.944 150.338 340.331 150.338H509.765C512.152 150.338 514.087 153.257 514.087 156.858C514.087 160.459 512.152 163.378 509.765 163.378Z" fill="white"/>
<path d="M507.572 289.652H252.181C250.453 289.652 248.796 288.965 247.574 287.743C246.352 286.52 245.666 284.861 245.666 283.132C245.666 281.403 246.352 279.744 247.574 278.522C248.796 277.299 250.453 276.612 252.181 276.612H507.572C509.3 276.612 510.957 277.299 512.179 278.522C513.4 279.744 514.087 281.403 514.087 283.132C514.087 284.861 513.4 286.52 512.179 287.743C510.957 288.965 509.3 289.652 507.572 289.652Z" fill="white"/>
<path d="M507.572 331.816H252.181C250.453 331.816 248.796 331.129 247.574 329.907C246.352 328.684 245.666 327.025 245.666 325.296C245.666 323.567 246.352 321.908 247.574 320.686C248.796 319.463 250.453 318.776 252.181 318.776H507.572C509.3 318.776 510.957 319.463 512.179 320.686C513.4 321.908 514.087 323.567 514.087 325.296C514.087 327.025 513.4 328.684 512.179 329.907C510.957 331.129 509.3 331.816 507.572 331.816V331.816Z" fill="white"/>
<path d="M507.572 373.98H252.181C250.453 373.98 248.796 373.293 247.574 372.07C246.352 370.848 245.666 369.189 245.666 367.46C245.666 365.731 246.352 364.072 247.574 362.849C248.796 361.627 250.453 360.94 252.181 360.94H507.572C509.3 360.94 510.957 361.627 512.179 362.849C513.4 364.072 514.087 365.731 514.087 367.46C514.087 369.189 513.4 370.848 512.179 372.07C510.957 373.293 509.3 373.98 507.572 373.98Z" fill="white"/>
<path d="M507.572 416.144H252.181C250.453 416.144 248.796 415.457 247.574 414.234C246.352 413.012 245.666 411.353 245.666 409.624C245.666 407.895 246.352 406.236 247.574 405.013C248.796 403.791 250.453 403.104 252.181 403.104H507.572C509.3 403.104 510.957 403.791 512.179 405.013C513.4 406.236 514.087 407.895 514.087 409.624C514.087 411.353 513.4 413.012 512.179 414.234C510.957 415.457 509.3 416.144 507.572 416.144Z" fill="white"/>
<path d="M507.572 458.308H252.181C250.453 458.308 248.796 457.621 247.574 456.398C246.352 455.175 245.666 453.517 245.666 451.788C245.666 450.058 246.352 448.4 247.574 447.177C248.796 445.954 250.453 445.268 252.181 445.268H507.572C509.3 445.268 510.957 445.954 512.179 447.177C513.4 448.4 514.087 450.058 514.087 451.788C514.087 453.517 513.4 455.175 512.179 456.398C510.957 457.621 509.3 458.308 507.572 458.308Z" fill="white"/>
<path d="M279.979 172.941C298.929 172.941 314.291 157.567 314.291 138.601C314.291 119.636 298.929 104.262 279.979 104.262C261.028 104.262 245.666 119.636 245.666 138.601C245.666 157.567 261.028 172.941 279.979 172.941Z" fill="white"/>
<path d="M254.009 259.038L202.842 286.262L202.194 263.575C218.895 260.785 234.784 255.927 249.475 248.018L254.827 234.787C255.41 233.345 256.358 232.08 257.577 231.115C258.796 230.151 260.245 229.52 261.782 229.285C263.318 229.05 264.889 229.22 266.341 229.776C267.792 230.332 269.074 231.257 270.06 232.459V232.459C271.504 234.217 272.225 236.459 272.079 238.73C271.932 241.001 270.929 243.131 269.271 244.69L254.009 259.038Z" fill="#FFB8B8"/>
<path d="M128.986 416.222C128.613 414.852 128.534 413.418 128.754 412.015C128.974 410.612 129.488 409.272 130.263 408.082L141.503 390.819C144.161 386.735 148.241 383.786 152.949 382.543C157.658 381.299 162.66 381.851 166.985 384.09V384.09C162.262 392.138 162.92 399.197 168.617 405.332C159.773 409.653 151.6 415.229 144.349 421.889C143.026 422.792 141.506 423.365 139.916 423.561C138.326 423.757 136.712 423.571 135.209 423.016C133.706 422.462 132.357 421.556 131.275 420.374C130.192 419.192 129.408 417.769 128.986 416.222V416.222Z" fill="#2F2E41"/>
<path d="M256.34 393.65C254.639 396.487 252.238 398.839 249.367 400.48C246.497 402.12 243.253 402.996 239.947 403.021L165.276 403.587L162.037 384.789L195.069 375.066L167.219 353.675L197.66 318.024L252.951 369.598C256.183 372.613 258.283 376.646 258.899 381.024C259.516 385.402 258.613 389.859 256.34 393.65V393.65Z" fill="#2F2E41"/>
<path d="M153.618 522.208H136.13C120.429 414.496 104.446 306.483 151.675 266.168L207.376 275.243L200.251 322.562L169.162 358.213L153.618 522.208Z" fill="#2F2E41"/>
<path d="M167.252 555.301C165.883 555.675 164.451 555.754 163.049 555.534C161.647 555.314 160.307 554.799 159.119 554.024L141.868 542.776C137.788 540.116 134.84 536.034 133.598 531.321C132.355 526.609 132.906 521.603 135.143 517.274V517.274C143.185 522.001 150.239 521.342 156.368 515.64C160.686 524.49 166.259 532.67 172.914 539.926C173.816 541.25 174.389 542.771 174.585 544.362C174.781 545.954 174.594 547.569 174.041 549.073C173.487 550.577 172.582 551.927 171.401 553.011C170.22 554.094 168.798 554.879 167.252 555.301Z" fill="#2F2E41"/>
<path d="M229.95 191.306H146.816C131.464 169.569 129.662 148.783 146.816 129.326C146.816 120.723 157.92 113.748 171.618 113.748H171.618C182.347 113.748 191.86 118.082 195.192 124.488L229.95 191.306Z" fill="#2F2E41"/>
<path d="M195.069 194.218L162.685 186.439C168.063 175.421 168.506 163.161 165.923 150.14L187.945 149.492C188.635 165.684 190.722 180.812 195.069 194.218Z" fill="#FFB8B8"/>
<path d="M203.97 294.76C180.395 310.837 163.738 295.31 151.026 271.354C152.793 256.695 149.933 239.152 144.636 220.091C142.28 211.683 143.16 202.698 147.101 194.908C151.042 187.117 157.758 181.089 165.923 178.013V178.013L193.774 189.68C217.423 208.972 222.077 229.868 213.205 251.908L203.97 294.76Z" fill="#32936F"/>
<path d="M136.13 210.423L110.222 224.035L156.208 251.259L162.607 267.055C163.034 268.11 163.242 269.24 163.218 270.377C163.195 271.515 162.94 272.635 162.469 273.671C161.999 274.706 161.322 275.635 160.481 276.401C159.64 277.166 158.652 277.752 157.578 278.123V278.123C156.356 278.545 155.054 278.677 153.772 278.511C152.491 278.345 151.265 277.884 150.192 277.164C149.118 276.445 148.225 275.486 147.583 274.364C146.941 273.242 146.568 271.986 146.492 270.695L145.845 259.686L87.3972 240.383C85.4279 239.733 83.6324 238.642 82.1465 237.195C80.6607 235.747 79.5235 233.98 78.8211 232.027V232.027C77.7972 229.181 77.7451 226.075 78.6729 223.196C79.6007 220.317 81.456 217.827 83.9485 216.116L130.948 183.847L136.13 210.423Z" fill="#FFB8B8"/>
<path d="M162.037 213.016C151.232 208.277 141.407 213.425 129.005 217.553L127.062 183.198C139.376 176.63 151.117 174.859 162.037 179.957V213.016Z" fill="#32936F"/>
<path d="M228.425 191.306H210.089C198.677 170.237 199.195 133.011 174.667 141.308C158.908 131.947 167.95 168.679 164.032 191.306H148.085C143.752 169.198 143.692 147.045 148.79 129.029C148.838 127.849 149.135 126.693 149.66 125.635C150.186 124.578 150.929 123.643 151.84 122.892C152.631 122.166 153.487 121.515 154.399 120.947C160.033 117.394 163.818 115.371 172.05 115.371C176.657 115.36 181.244 115.992 185.677 117.246C186.254 117.415 186.824 117.596 187.374 117.786C188.132 118.045 188.864 118.33 189.564 118.635C193.165 120.185 195.995 122.282 197.336 124.908C212.855 143.43 220.776 166.799 228.425 191.306Z" fill="#2F2E41"/>
<path d="M174.962 166.509C186.382 166.509 195.639 157.245 195.639 145.816C195.639 134.388 186.382 125.124 174.962 125.124C163.543 125.124 154.286 134.388 154.286 145.816C154.286 157.245 163.543 166.509 174.962 166.509Z" fill="#FFB8B8"/>
<path d="M195.934 137.835C189.714 129.35 173.492 139.472 153.991 146.703V126.602C170.033 119.534 179.387 117.496 190.027 124.828L195.934 137.835Z" fill="#2F2E41"/>
</svg>
