<svg width="24" height="24" viewBox="0 0 24 24" fill="none" xmlns="http://www.w3.org/2000/svg">
<path fill-rule="evenodd" clip-rule="evenodd" d="M19.28 7.26667H15.44V5.13333L13.52 3H9.68L7.76 5.13333V7.26667H3.92C2.864 7.26667 2 8.22667 2 9.4V14.7333C2 15.5333 2.384 16.2053 2.96 16.5787V20.0667C2.96 21.2507 3.8144 22.2 4.88 22.2H18.32C19.3856 22.2 20.24 21.2507 20.24 20.0667V16.568C20.8064 16.1947 21.2 15.512 21.2 14.7333V9.4C21.2 8.22667 20.336 7.26667 19.28 7.26667ZM9.67996 5.13333H13.52V7.26667H9.67996V5.13333ZM19.28 9.4H3.91999V14.7333H8.71999V11.5333H14.48V14.7333H19.28V9.4ZM12.56 15.8H10.64V13.6667H12.56V15.8ZM4.87999 20.0667H18.32V16.8667H14.48V17.9333H8.71999V16.8667H4.87999V20.0667Z" fill="#32936F"/>
</svg>
